<?xml version="1.0" encoding="utf-8"?>
<svg id="master-artboard" viewBox="0 0 1400 980" version="1.1" xmlns="http://www.w3.org/2000/svg" x="0px" y="0px" width="1400px" height="980px" enable-background="new 0 0 1400 980">
<path d="M -13 -12.895 H 1413 V 993.105 H -13 V -12.895 Z" fill="#2A3586" transform="matrix(1, 0, 0, 1, 2.842170943040401e-14, 7.105427357601002e-15)" style="fill-opacity: 0;"/>
<linearGradient id="SVGID_1_" gradientUnits="userSpaceOnUse" x1="777.2578" y1="386.1108" x2="777.2578" y2="459.5566">
		<stop offset="0" style="stop-color:#FFFFFF"/>
		<stop offset="1" style="stop-color:#FFFFFF;stop-opacity:0"/>
	</linearGradient><path fill="url(#SVGID_1_)" d="M777.258,459.557L777.258,459.557c-2.38,0-4.31-1.929-4.31-4.31V390.42c0-2.38,1.93-4.31,4.31-4.31&#10;&#9;&#9;l0,0c2.38,0,4.31,1.929,4.31,4.31v64.827C781.567,457.627,779.638,459.557,777.258,459.557z" transform="matrix(1, 0, 0, 1, 2.842170943040401e-14, 7.105427357601002e-15)"/><path d="M 1024.850952 731.650024 L 1090.499023 731.650024 L 1115.312012 756.461975 L 1188.479004 756.461975 L 1121.712036 821.710999" fill="none" stroke="#FFFFFF" stroke-width="2" stroke-miterlimit="10" transform="matrix(1, 0, 0, 1, 5.684341886080802e-14, 1.4210854715202004e-14)"/><path d="M 1019.888977 737.012024 L 1085.536987 737.012024 L 1110.323975 761.797974 L 1166.067993 761.797974 L 1120.081055 806.73999" fill="none" stroke="#FFFFFF" stroke-width="2" stroke-miterlimit="10" transform="matrix(1, 0, 0, 1, 5.684341886080802e-14, 1.4210854715202004e-14)"/><path d="M 1032.29895 724.370972 L 1098.626953 724.370972 L 1123.07605 748.820007 L 1180.774048 748.820007" fill="none" stroke="#FFFFFF" stroke-width="2" stroke-miterlimit="10" transform="matrix(1, 0, 0, 1, 5.684341886080802e-14, 1.4210854715202004e-14)"/><path d="M 1038.116943 718.685974 L 1103.765991 718.685974 L 1169.194946 703.776001 L 1225.438965 703.776001 L 1253.514038 676.341003" fill="none" stroke="#FFFFFF" stroke-width="2" stroke-miterlimit="10" transform="matrix(1, 0, 0, 1, 5.684341886080802e-14, 1.4210854715202004e-14)"/><path d="M 1044.189941 712.749023 L 1109.839966 712.749023 L 1175.604004 697.513 L 1221.774048 697.513 L 1269.024048 648.846985" fill="none" stroke="#FFFFFF" stroke-width="2" stroke-miterlimit="10" transform="matrix(1, 0, 0, 1, 5.684341886080802e-14, 1.4210854715202004e-14)"/><path d="M 1019.336975 699.364014 L 1084.985962 699.364014 L 1150.750977 684.127991 L 1186.921021 684.127991 L 1215.442993 654.750977" fill="none" stroke="#FFFFFF" stroke-width="2" stroke-miterlimit="10" transform="matrix(1, 0, 0, 1, 5.684341886080802e-14, 1.4210854715202004e-14)"/><path d="M 1130.441032 821.013977 A 7.583 1.417 0 0 1 1122.858032 822.430977 A 7.583 1.417 0 0 1 1115.275032 821.013977 A 7.583 1.417 0 0 1 1122.858032 819.596977 A 7.583 1.417 0 0 1 1130.441032 821.013977 Z" fill="#FFFFFF" transform="matrix(1, 0, 0, 1, 5.684341886080802e-14, 1.4210854715202004e-14)"/><path d="M 1127.665031 806.73999 A 7.583 1.417 0 0 1 1120.082031 808.15699 A 7.583 1.417 0 0 1 1112.499031 806.73999 A 7.583 1.417 0 0 1 1120.082031 805.32299 A 7.583 1.417 0 0 1 1127.665031 806.73999 Z" fill="#FFFFFF" transform="matrix(1, 0, 0, 1, 5.684341886080802e-14, 1.4210854715202004e-14)"/><path d="M 1188.358025 748.820007 A 7.583 1.416 0 0 1 1180.775024 750.236007 A 7.583 1.416 0 0 1 1173.192024 748.820007 A 7.583 1.416 0 0 1 1180.775024 747.404007 A 7.583 1.416 0 0 1 1188.358025 748.820007 Z" fill="#FFFFFF" transform="matrix(1, 0, 0, 1, 5.684341886080802e-14, 1.4210854715202004e-14)"/><path d="M 1261.09594 676.341003 A 7.583 1.417 0 0 1 1253.512939 677.758003 A 7.583 1.417 0 0 1 1245.929939 676.341003 A 7.583 1.417 0 0 1 1253.512939 674.924003 A 7.583 1.417 0 0 1 1261.09594 676.341003 Z" fill="#FFFFFF" transform="matrix(1, 0, 0, 1, 5.684341886080802e-14, 1.4210854715202004e-14)"/><path d="M 1276.608025 648.846985 A 7.583 1.417 0 0 1 1269.025024 650.263985 A 7.583 1.417 0 0 1 1261.442024 648.846985 A 7.583 1.417 0 0 1 1269.025024 647.429985 A 7.583 1.417 0 0 1 1276.608025 648.846985 Z" fill="#FFFFFF" transform="matrix(1, 0, 0, 1, 5.684341886080802e-14, 1.4210854715202004e-14)"/><path d="M 1223.02697 654.750977 A 7.583 1.417 0 0 1 1215.44397 656.167977 A 7.583 1.417 0 0 1 1207.86097 654.750977 A 7.583 1.417 0 0 1 1215.44397 653.333977 A 7.583 1.417 0 0 1 1223.02697 654.750977 Z" fill="#FFFFFF" transform="matrix(1, 0, 0, 1, 5.684341886080802e-14, 1.4210854715202004e-14)"/><path d="M 370.424011 699.945984 L 304.774994 699.945984 L 279.963013 675.13501 L 206.796997 675.13501 L 273.562012 609.885986" fill="none" stroke="#FFFFFF" stroke-width="2" stroke-miterlimit="10" transform="matrix(1, 0, 0, 1, 5.684341886080802e-14, 1.4210854715202004e-14)"/><path d="M 375.385986 694.585022 L 309.737 694.585022 L 284.950989 669.799011 L 229.205994 669.799011 L 275.192993 624.856018" fill="none" stroke="#FFFFFF" stroke-width="2" stroke-miterlimit="10" transform="matrix(1, 0, 0, 1, 5.684341886080802e-14, 1.4210854715202004e-14)"/><path d="M 362.976013 707.226013 L 296.64801 707.226013 L 272.197998 682.775024 L 214.5 682.775024" fill="none" stroke="#FFFFFF" stroke-width="2" stroke-miterlimit="10" transform="matrix(1, 0, 0, 1, 5.684341886080802e-14, 1.4210854715202004e-14)"/><path d="M 357.15799 712.911011 L 291.509003 712.911011 L 226.080002 727.81897 L 169.835007 727.81897 L 141.761993 755.255981" fill="none" stroke="#FFFFFF" stroke-width="2" stroke-miterlimit="10" transform="matrix(1, 0, 0, 1, 5.684341886080802e-14, 1.4210854715202004e-14)"/><path d="M 351.084015 718.848022 L 285.434998 718.848022 L 219.669998 734.083984 L 173.5 734.083984 L 126.25 782.75" fill="none" stroke="#FFFFFF" stroke-width="2" stroke-miterlimit="10" transform="matrix(1, 0, 0, 1, 5.684341886080802e-14, 1.4210854715202004e-14)"/><path d="M 375.937988 732.231995 L 310.289001 732.231995 L 244.524002 747.468994 L 208.354004 747.468994 L 179.830994 776.846008" fill="none" stroke="#FFFFFF" stroke-width="2" stroke-miterlimit="10" transform="matrix(1, 0, 0, 1, 5.684341886080802e-14, 1.4210854715202004e-14)"/><path d="M 279.999992 610.583008 A 7.583 1.417 0 0 1 272.416992 612.000008 A 7.583 1.417 0 0 1 264.833992 610.583008 A 7.583 1.417 0 0 1 272.416992 609.166008 A 7.583 1.417 0 0 1 279.999992 610.583008 Z" fill="#FFFFFF" transform="matrix(1, 0, 0, 1, 5.684341886080802e-14, 1.4210854715202004e-14)"/><path d="M 282.775993 624.856018 A 7.583 1.417 0 0 1 275.192993 626.273018 A 7.583 1.417 0 0 1 267.609993 624.856018 A 7.583 1.417 0 0 1 275.192993 623.439018 A 7.583 1.417 0 0 1 282.775993 624.856018 Z" fill="#FFFFFF" transform="matrix(1, 0, 0, 1, 5.684341886080802e-14, 1.4210854715202004e-14)"/><path d="M 222.083 682.775024 A 7.583 1.417 0 0 1 214.5 684.192024 A 7.583 1.417 0 0 1 206.917 682.775024 A 7.583 1.417 0 0 1 214.5 681.358024 A 7.583 1.417 0 0 1 222.083 682.775024 Z" fill="#FFFFFF" transform="matrix(1, 0, 0, 1, 5.684341886080802e-14, 1.4210854715202004e-14)"/><path d="M 149.344002 755.255981 A 7.583 1.417 0 0 1 141.761002 756.672982 A 7.583 1.417 0 0 1 134.178001 755.255981 A 7.583 1.417 0 0 1 141.761002 753.838981 A 7.583 1.417 0 0 1 149.344002 755.255981 Z" fill="#FFFFFF" transform="matrix(1, 0, 0, 1, 5.684341886080802e-14, 1.4210854715202004e-14)"/><path d="M 133.833 782.75 A 7.583 1.417 0 0 1 126.25 784.167 A 7.583 1.417 0 0 1 118.667 782.75 A 7.583 1.417 0 0 1 126.25 781.333 A 7.583 1.417 0 0 1 133.833 782.75 Z" fill="#FFFFFF" transform="matrix(1, 0, 0, 1, 5.684341886080802e-14, 1.4210854715202004e-14)"/><path d="M 187.413994 776.846008 A 7.583 1.417 0 0 1 179.830994 778.263008 A 7.583 1.417 0 0 1 172.247993 776.846008 A 7.583 1.417 0 0 1 179.830994 775.429008 A 7.583 1.417 0 0 1 187.413994 776.846008 Z" fill="#FFFFFF" transform="matrix(1, 0, 0, 1, 5.684341886080802e-14, 1.4210854715202004e-14)"/><path fill="#1F53A5" d="M1116.686,645.669c0.268-1.029,0.263-2.093,0-3.093v-24.602L934.601,654.95H461.549&#10;&#9;&#9;&#9;c-1.611,0-3.157,0.63-4.309,1.756L334.3,776.852l-46.864,9.517v22.9l0.107-0.021c0.478,2.752,2.769,5.151,6.07,5.151h649.168&#10;&#9;&#9;&#9;c1.61,0,3.157-0.631,4.309-1.756l167.935-164.119c0.852-0.832,1.376-1.798,1.646-2.799l0.015-0.003V645.669z" transform="matrix(1, 0, 0, 1, 5.684341886080802e-14, 1.4210854715202004e-14)"/><path fill="#46C6F0" d="M1110.717,613.349H461.549c-1.611,0-3.157,0.63-4.309,1.755L289.305,779.223&#10;&#9;&#9;&#9;c-3.953,3.862-1.218,10.573,4.309,10.573h649.168c1.61,0,3.157-0.63,4.309-1.756l167.936-164.118&#10;&#9;&#9;&#9;C1118.979,620.06,1116.244,613.349,1110.717,613.349z" transform="matrix(1, 0, 0, 1, 5.684341886080802e-14, 1.4210854715202004e-14)"/><path d="M 923.5339965820312 779.4180297851562 L 335.1619873046875 779.4180297851562 L 494.4750061035156 623.7260131835938 L 1082.8480224609375 623.7260131835938 Z" fill="#DFF2F3" transform="matrix(1, 0, 0, 1, 5.684341886080802e-14, 1.4210854715202004e-14)"/><path fill="#2152A4" d="M401.522,765.024h-10.507c-6.196,0-9.262-7.524-4.831-11.854l39.365-38.471&#10;&#9;&#9;&#9;c3.688-3.604,8.642-5.623,13.799-5.623h10.507c6.196,0,9.261,7.523,4.831,11.854l-39.365,38.47&#10;&#9;&#9;&#9;C411.633,763.006,406.68,765.024,401.522,765.024z" transform="matrix(1, 0, 0, 1, 5.684341886080802e-14, 1.4210854715202004e-14)"/><path d="M 417.434985 689.138 A 13.519 9.808 0 0 1 403.915985 698.946 A 13.519 9.808 0 0 1 390.396985 689.138 A 13.519 9.808 0 0 1 403.915985 679.330001 A 13.519 9.808 0 0 1 417.434985 689.138 Z" transform="matrix(-0.8303000330924988, 0.5573000311851501, -0.5573000311851501, -0.8303000330924988, 1123.3414306640625, 1036.2509765625)" fill="#2A337F"/><path d="M 988.157987 740.434021 A 8.022 5.82 0 0 1 980.135986 746.254021 A 8.022 5.82 0 0 1 972.113986 740.434021 A 8.022 5.82 0 0 1 980.135986 734.614021 A 8.022 5.82 0 0 1 988.157987 740.434021 Z" transform="matrix(-0.8235000371932983, 0.567300021648407, -0.567300021648407, -0.8235000371932983, 2207.337890625, 794.1486206054688)" fill="#7054A3"/><path d="M 971.402005 755.822021 A 8.022 5.82 0 0 1 963.380005 761.642022 A 8.022 5.82 0 0 1 955.358005 755.822021 A 8.022 5.82 0 0 1 963.380005 750.002021 A 8.022 5.82 0 0 1 971.402005 755.822021 Z" transform="matrix(-0.8235000371932983, 0.567300021648407, -0.567300021648407, -0.8235000371932983, 2185.509765625, 831.7578735351562)" fill="#7054A3"/><path fill="#2A337F" d="M858.961,809.127H751.134c-3.16,0-5.723-2.562-5.723-5.724v-3.1c0-3.16,2.562-5.723,5.723-5.723h107.827&#10;&#9;&#9;&#9;c3.161,0,5.724,2.562,5.724,5.723v3.1C864.685,806.564,862.122,809.127,858.961,809.127z" transform="matrix(1, 0, 0, 1, 5.684341886080802e-14, 1.4210854715202004e-14)"/><path fill="#46C6F0" d="M1108.182,642.836v4.35c0,1.454-0.577,2.849-1.605,3.876l-20.446,20.446&#10;&#9;&#9;&#9;c-0.713,0.713-1.932,0.209-1.932-0.8v-6.482c0-1.55,0.618-3.035,1.718-4.126l18.827-18.695&#10;&#9;&#9;&#9;C1106.016,640.141,1108.182,641.042,1108.182,642.836z" transform="matrix(1, 0, 0, 1, 5.684341886080802e-14, 1.4210854715202004e-14)"/><path d="M 1047.785034 632.781006 L 1001.197021 676.38501" fill="none" stroke="#2A337F" stroke-miterlimit="10" transform="matrix(1, 0, 0, 1, 5.684341886080802e-14, 1.4210854715202004e-14)"/><path d="M 1011.223999 638.578003 L 875.245972 771.570984" fill="none" stroke="#2A337F" stroke-miterlimit="10" transform="matrix(1, 0, 0, 1, 5.684341886080802e-14, 1.4210854715202004e-14)"/><path d="M 986.664001 638.578003 L 850.687012 771.570984" fill="none" stroke="#2A337F" stroke-miterlimit="10" transform="matrix(1, 0, 0, 1, 5.684341886080802e-14, 1.4210854715202004e-14)"/><path d="M 742.225986 697.575012 A 57.129002 125.862 0 0 1 685.096985 823.437012 A 57.129002 125.862 0 0 1 627.967983 697.575012 A 57.129002 125.862 0 0 1 685.096985 571.713013 A 57.129002 125.862 0 0 1 742.225986 697.575012 Z" transform="matrix(0.010300001129508018, 0.9998999834060669, -0.9998999834060669, 0.010300001129508018, 1375.55859375, 5.30959987640383)" fill="#46C6F0"/><path fill="#7FD2EF" d="M774.508,737.05c22.668-10.573,36.607-25,36.445-40.774l-125.856,1.3L774.508,737.05z" transform="matrix(1, 0, 0, 1, 8.526512829121202e-14, 2.1316282072803006e-14)"/><path fill="#98DAF0" d="M580.565,730.256c22.708,15.153,61.355,24.897,105.122,24.445c34.754-0.359,66.152-7.078,88.821-17.651&#10;&#9;&#9;&#9;&#9;l-89.411-39.475L580.565,730.256z" transform="matrix(1, 0, 0, 1, 8.526512829121202e-14, 2.1316282072803006e-14)"/><path fill="#BDE6F3" d="M685.097,697.575l125.856-1.3c-0.071-6.838-2.789-13.367-7.705-19.394L685.097,697.575z" transform="matrix(1, 0, 0, 1, 8.526512829121202e-14, 2.1316282072803006e-14)"/><path opacity="0.47" fill="#51C9EF" d="M746.695,113.817c-8.744-1.426-17.57-2.411-26.377-3.174&#10;&#9;&#9;&#9;c-26.755-2.317-53.76-2.786-80.584-1.467c-13.714,0.675-27.409,1.72-41.017,3.589c-1.465,0.202-2.93,0.417-4.393,0.638v73.501&#10;&#9;&#9;&#9;c15.559-2.374,31.29-3.609,47.005-4.299c32.628-1.432,65.713-0.76,98.102,3.677c2.422,0.332,4.844,0.692,7.264,1.076V113.817z" transform="matrix(1, 0, 0, 1, 5.684341886080802e-14, 1.4210854715202004e-14)"/><path fill="#51C9EF" d="M651.102,142.687c0,10.22-8.28,18.5-18.5,18.5c-10.21,0-18.5-8.28-18.5-18.5s8.29-18.5,18.5-18.5&#10;&#9;&#9;&#9;&#9;C642.822,124.187,651.102,132.466,651.102,142.687z" transform="matrix(1, 0, 0, 1, 8.526512829121202e-14, 2.1316282072803006e-14)"/><path fill="#FFFFFF" d="M651.102,142.687c0,10.22-8.28,18.5-18.5,18.5v-18.5H651.102z" transform="matrix(1, 0, 0, 1, 8.526512829121202e-14, 2.1316282072803006e-14)"/><path fill="none" stroke="#FFFFFF" stroke-miterlimit="10" d="M690.546,127.343c0,1.744-1.414,3.157-3.157,3.157h-17.717&#10;&#9;&#9;&#9;c-1.744,0-3.157-1.413-3.157-3.157l0,0c0-1.744,1.414-3.157,3.157-3.157h17.717C689.132,124.187,690.546,125.6,690.546,127.343&#10;&#9;&#9;&#9;L690.546,127.343z" transform="matrix(1, 0, 0, 1, 5.684341886080802e-14, 1.4210854715202004e-14)"/><path fill="none" stroke="#FFFFFF" stroke-miterlimit="10" d="M719.281,127.343c0,1.744-1.414,3.157-3.158,3.157h-17.716&#10;&#9;&#9;&#9;c-1.744,0-3.157-1.413-3.157-3.157l0,0c0-1.744,1.414-3.157,3.157-3.157h17.716C717.867,124.187,719.281,125.6,719.281,127.343&#10;&#9;&#9;&#9;L719.281,127.343z" transform="matrix(1, 0, 0, 1, 5.684341886080802e-14, 1.4210854715202004e-14)"/><path fill="#1A1F4B" d="M638.86,514.776L638.86,514.776c-10.865-0.968-18.887-10.561-17.919-21.425L632.814,331.4l47.135,4.201&#10;&#9;&#9;&#9;l-19.793,162.354C658.644,508.324,649.297,515.706,638.86,514.776z" transform="matrix(1, 0, 0, 1, 5.684341886080802e-14, 1.4210854715202004e-14)"/><path fill="#1A1F4B" d="M642.6,705.867l-31.901-1.822l10.32-208.924c0.594-10.39,9.498-18.332,19.888-17.738h0&#10;&#9;&#9;&#9;c10.673,0.61,18.702,9.966,17.684,20.607L642.6,705.867z" transform="matrix(1, 0, 0, 1, 5.684341886080802e-14, 1.4210854715202004e-14)"/><path fill="#1A1F4B" d="M699.09,514.372L699.09,514.372c10.889-0.641,19.196-9.987,18.555-20.876l-6.993-162.235l-47.241,2.78&#10;&#9;&#9;&#9;l14.898,162.877C679.51,507.327,688.63,514.988,699.09,514.372z" transform="matrix(1, 0, 0, 1, 5.684341886080802e-14, 1.4210854715202004e-14)"/><path fill="#1A1F4B" d="M691.934,707.784l31.926-1.299l-6.893-209.064c-0.424-10.399-9.196-18.486-19.595-18.063l0,0&#10;&#9;&#9;&#9;c-10.682,0.435-18.863,9.658-18.02,20.315L691.934,707.784z" transform="matrix(1, 0, 0, 1, 5.684341886080802e-14, 1.4210854715202004e-14)"/><path fill="#315FAC" d="M714.688,338.247c0,0-22.808,4.111-44.911,4.111c-19.01,0-41.862-5.258-41.862-5.258l-5.747-88.664&#10;&#9;&#9;&#9;c-0.721-11.123,8.106-20.542,19.253-20.542h77.296L714.688,338.247z" transform="matrix(1, 0, 0, 1, 5.684341886080802e-14, 1.4210854715202004e-14)"/><path fill="#315FAC" d="M624.836,339.866l26.522-85.474c3.248-10.467-3.053-21.494-13.719-24.011l0,0&#10;&#9;&#9;&#9;c-10.165-2.399-20.351,3.897-22.75,14.062l-20.555,87.102c-2.006,8.502,3.259,17.021,11.762,19.028l0,0&#10;&#9;&#9;&#9;C614.186,352.482,622.373,347.805,624.836,339.866z" transform="matrix(1, 0, 0, 1, 5.684341886080802e-14, 1.4210854715202004e-14)"/><path d="M 704.5889892578125 227.89500427246094 L 657.2969970703125 227.89500427246094 L 679.7680053710938 307.1700134277344 Z" fill="#FFFFFF" transform="matrix(1, 0, 0, 1, 5.684341886080802e-14, 1.4210854715202004e-14)"/><path fill="#315FAC" d="M746,334.879l-50.108-97.655l20.021-8.583c8.83-3.785,19.057,0.305,22.842,9.135l35.857,83.649&#10;&#9;&#9;&#9;c3.441,8.029-0.277,17.329-8.307,20.771l0,0C758.666,345.471,749.795,342.274,746,334.879z" transform="matrix(1, 0, 0, 1, 5.684341886080802e-14, 1.4210854715202004e-14)"/><path fill="#315FAC" d="M845.008,267.254l-73.38,72.851c-6.328,5.59-15.99,4.992-21.58-1.336l0,0&#10;&#9;&#9;&#9;c-5.591-6.328-4.992-15.99,1.336-21.581l78.929-66.569L845.008,267.254z" transform="matrix(1, 0, 0, 1, 5.684341886080802e-14, 1.4210854715202004e-14)"/><path d="M 694.97900390625 229.30999755859375 L 678.281982421875 231.82400512695312 L 661.781005859375 222.2469940185547 L 661.0490112304688 206.6320037841797 L 693.843994140625 205.093994140625 Z" fill="#CFB4B2" transform="matrix(1, 0, 0, 1, 5.684341886080802e-14, 1.4210854715202004e-14)"/><path fill="#D8BBB7" d="M703.277,183.671c1.121,8.288-1.01,16.996-4.331,24.731c-2.115,4.927-5.402,10.209-10.695,11.062&#10;&#9;&#9;&#9;c-2.588,0.417-5.214-0.337-7.683-1.221c-13.308-4.765-28.424-14.215-29.865-29.661c-1.349-14.462,9.281-27.28,23.743-28.629&#10;&#9;&#9;&#9;c10.052-0.938,19.984,4.142,25.112,12.84C701.594,176.246,702.77,179.916,703.277,183.671z" transform="matrix(1, 0, 0, 1, 5.684341886080802e-14, 1.4210854715202004e-14)"/><path d="M 644.1599731445312 705.47900390625 L 665.5339965820312 714.9920043945312 L 608.9559936523438 714.25 L 611.0260009765625 701.9959716796875 Z" fill="#2A3586" transform="matrix(1, 0, 0, 1, 5.684341886080802e-14, 1.4210854715202004e-14)"/><path d="M 724.0130004882812 705.4169921875 L 745.4110107421875 714.8759765625 L 691.6199951171875 714.3070068359375 L 691.718017578125 705.073974609375 Z" fill="#2A3586" transform="matrix(1, 0, 0, 1, 5.684341886080802e-14, 1.4210854715202004e-14)"/><path fill="#D8BBB7" d="M829.265,252.939c-0.096-2.06,0.377-4.082,1.521-6.971c1.009-2.544,2.063-5.163,3.985-7.112&#10;&#9;&#9;&#9;c1.922-1.949,4.954-3.073,7.463-1.98c0.93,0.405,1.677,1.157,2.608,1.53c0.894,0.358,1.923,0.738,2.881,0.903&#10;&#9;&#9;&#9;c1.067,0.184,2.161,0.07,3.237-0.056c6.581-0.773,13.148-2.014,19.772-1.839c0.22,0.006-0.244,1.957-0.309,2.125&#10;&#9;&#9;&#9;c-0.271,0.71-0.703,1.362-1.254,1.886c-1.256,1.194-3.103,1.356-4.758,1.471c-1.925,0.132-4.733,0.508-5.949,2.204&#10;&#9;&#9;&#9;c-0.972,1.355-0.912,3.104-0.824,4.69c0.092,1.646,0.009,3.123-0.144,4.75c-0.324,3.463-1.621,6.864-3.855,9.547&#10;&#9;&#9;&#9;c-2.036,2.444-4.86,4.253-7.959,4.998c-1.339,0.321-2.838,1.001-4.194,1.075c-1.778,0.097-3.533-0.598-4.935-1.66&#10;&#9;&#9;&#9;c-2.827-2.142-4.448-5.745-5.627-8.976C829.936,256.809,829.354,254.857,829.265,252.939z" transform="matrix(1, 0, 0, 1, 5.684341886080802e-14, 1.4210854715202004e-14)"/><path d="M 675.1199951171875 233.96099853515625 L 683.7490234375 233.96099853515625 L 679.4349975585938 241.35699462890625 Z" fill="#5365AE" transform="matrix(1, 0, 0, 1, 5.684341886080802e-14, 1.4210854715202004e-14)"/><path d="M 679.2100219726562 238.9499969482422 L 685.0969848632812 295.1709899902344 L 679.7680053710938 307.1700134277344 L 672.6929931640625 290.4519958496094 Z" fill="#5365AE" transform="matrix(1, 0, 0, 1, 5.684341886080802e-14, 1.4210854715202004e-14)"/><path fill="#1A1F4B" d="M660.964,227.895l19.01,79.275l-25.481-40.097l6.472-11.27l-14.561-12.619&#10;&#9;&#9;&#9;C646.403,243.184,645.594,223.85,660.964,227.895z" transform="matrix(1, 0, 0, 1, 5.684341886080802e-14, 1.4210854715202004e-14)"/><path fill="#1A1F4B" d="M698.778,227.895l-19.01,79.275l25.481-40.097l-6.471-11.27l14.561-12.619&#10;&#9;&#9;&#9;C713.339,243.184,714.147,223.85,698.778,227.895z" transform="matrix(1, 0, 0, 1, 5.684341886080802e-14, 1.4210854715202004e-14)"/><path fill="#EAEAEA" d="M659.304,220.209l19.906,11.729l-5.413,6.472l-14.144-11.073&#10;&#9;&#9;&#9;C659.653,227.338,656.161,221.423,659.304,220.209z" transform="matrix(1, 0, 0, 1, 5.684341886080802e-14, 1.4210854715202004e-14)"/><path fill="#EAEAEA" d="M697.392,220.209l-18.182,11.729l5.413,6.472l14.144-11.073&#10;&#9;&#9;&#9;C698.766,227.338,700.535,221.423,697.392,220.209z" transform="matrix(1, 0, 0, 1, 5.684341886080802e-14, 1.4210854715202004e-14)"/><path d="M 660.0590209960938 305.14801025390625 L 651.1019897460938 325.7650146484375 L 654.2230224609375 327.3940124511719 L 662.5859985351562 306.6409912109375 Z" fill="#2C1F57" transform="matrix(1, 0, 0, 1, 5.684341886080802e-14, 1.4210854715202004e-14)"/><path fill="#1D1E30" d="M674.053,186.303c0.072,2.575,0.159,5.155-1.238,7.204c-0.714,1.047-1.777,1.79-2.514,2.809&#10;&#9;&#9;&#9;c-0.736,1.019-0.832,2.015-1.35,3.085c-1.276,2.635-3.707,4.729-5.201,7.259c-1.248,2.113-1.538,4.737-1.766,7.131&#10;&#9;&#9;&#9;c-3.562-0.029-6.399-2.953-8.384-5.912c-4.403-6.564-6.809-14.298-8.062-22.102c-1.513-9.417,1.534-20.483,7.437-27.965&#10;&#9;&#9;&#9;c0.936-1.187,2.2-3.035,3.51-3.815c1.543-0.919,3.964-0.948,5.729-1.277c2.315-0.433,4.634-0.866,6.977-1.107&#10;&#9;&#9;&#9;c10.549-1.088,21.466,1.883,30.009,8.167c0.518,0.381,1.042,0.791,1.342,1.359c0.413,0.783,0.331,1.725,0.218,2.604&#10;&#9;&#9;&#9;c-0.301,2.331-0.75,4.643-1.344,6.917c-0.663,2.541-1.83,5.372-4.336,6.156c-1.104,0.346-2.294,0.22-3.444,0.091&#10;&#9;&#9;&#9;c-1.618-0.182-3.236-0.363-4.854-0.544c-2.066-0.231-4.163-0.462-6.216-0.134c-2.053,0.329-4.093,1.294-5.267,3.009&#10;&#9;&#9;&#9;C673.923,181.248,673.981,183.773,674.053,186.303z" transform="matrix(1, 0, 0, 1, 5.684341886080802e-14, 1.4210854715202004e-14)"/><path fill="#51C9EF" d="M655.765,182.317c0,0-7.281-1.494-10.612,0.872c0,0-2.899,5.426,1.242,7.07c0,0,6.23-1.409,11.597,2.047&#10;&#9;&#9;&#9;L655.765,182.317z" transform="matrix(1, 0, 0, 1, 5.684341886080802e-14, 1.4210854715202004e-14)"/><path fill="none" stroke="#5B3F1E" stroke-miterlimit="10" d="M696.151,192.306c0,0,2.772,6.127,3.851,10.818&#10;&#9;&#9;&#9;c1.216,5.289-6.66-0.779-6.66-0.779" transform="matrix(1, 0, 0, 1, 5.684341886080802e-14, 1.4210854715202004e-14)"/><path fill="#5365AE" d="M695.72,206.117l-11.216-0.302c0,0,1.572,5.915,5.431,6.746&#10;&#9;&#9;&#9;C693.793,213.393,695.72,206.117,695.72,206.117z" transform="matrix(1, 0, 0, 1, 5.684341886080802e-14, 1.4210854715202004e-14)"/><path fill="#4172B8" d="M698.817,334.604l-87.291-13.51c-8.391-0.949-15.962,5.083-16.911,13.474l0,0&#10;&#9;&#9;&#9;c-0.949,8.391,5.083,15.962,13.474,16.911l88.233,5.181L698.817,334.604z" transform="matrix(1, 0, 0, 1, 5.684341886080802e-14, 1.4210854715202004e-14)"/><path fill="#D8BBB7" d="M698.026,333.367c0,0,13.43-5.202,18.584-1.206c5.153,3.997-6.355,5.166-6.355,5.166&#10;&#9;&#9;&#9;s18.722,12.043,16.941,16.63s-0.487,19.081-40.492-1.5C686.705,352.458,678.524,344.843,698.026,333.367z" transform="matrix(1, 0, 0, 1, 5.684341886080802e-14, 1.4210854715202004e-14)"/><path fill="#51C9EF" d="M667.093,182.591c0,0,27.936,6.076,37.496-0.647c0,0,1.967,16.93-1.01,19.42&#10;&#9;&#9;&#9;c-4.384,3.667-3.621-8.029-6.235-7.842c-2.614,0.187-4.855,9.026-7.232,8.924C687.47,202.331,662.425,206.579,667.093,182.591z" transform="matrix(1, 0, 0, 1, 5.684341886080802e-14, 1.4210854715202004e-14)"/><path fill="#88D5F3" d="M670.21,185.458c0,0,25.521,4.937,34.254-0.526c0,0,1.797,12.264-0.923,14.287&#10;&#9;&#9;&#9;c-4.004,2.98-3.303-6.397-5.696-6.373c-5.357,0.053-5.929,7.335-8.101,7.252C687.332,200.005,665.945,204.95,670.21,185.458z" transform="matrix(1, 0, 0, 1, 5.684341886080802e-14, 1.4210854715202004e-14)"/><path fill="#51C9EF" d="M670.312,180.516c0,0,1.929,29.631-6.279,29.326c-8.208-0.305-11.945-6.632-11.226-22.081&#10;&#9;&#9;&#9;C653.526,172.312,670.312,180.516,670.312,180.516z" transform="matrix(1, 0, 0, 1, 5.684341886080802e-14, 1.4210854715202004e-14)"/><path fill="#3BBEEF" d="M652.808,187.761c-0.555,11.916,1.554,18.388,6.308,20.872c7.672,0.109,6.721-25.174,6.486-29.752&#10;&#9;&#9;&#9;C660.578,177.672,653.276,177.686,652.808,187.761z" transform="matrix(1, 0, 0, 1, 5.684341886080802e-14, 1.4210854715202004e-14)"/><path fill="#A2DDF2" d="M991.993,237.491l-56.122,34.08c-6.028,3.66-9.709,10.202-9.709,17.254v69.29&#10;&#9;&#9;c0,6.068,6.636,9.802,11.822,6.652l58.285-35.393c5.209-3.163,8.389-8.814,8.389-14.908v-69.848&#10;&#9;&#9;C1004.658,238.117,997.55,234.117,991.993,237.491z" transform="matrix(1, 0, 0, 1, 2.842170943040401e-14, 7.105427357601002e-15)"/><path fill="none" stroke="#51C9EF" stroke-miterlimit="10" d="M1010.321,211.246l-20.342,12.353v35.335l29.357-17.827v-24.787&#10;&#9;&#9;C1019.337,211.692,1014.276,208.844,1010.321,211.246z" transform="matrix(1, 0, 0, 1, 2.842170943040401e-14, 7.105427357601002e-15)"/><path fill="#51C9EF" d="M1051.175,173.362l-80.477,48.75c-1.745,1.057-3.975-0.199-3.975-2.239v-19.979&#10;&#9;&#9;c0-3.302,1.725-6.363,4.549-8.074l80.478-48.75c1.744-1.057,3.974,0.199,3.974,2.239v19.979&#10;&#9;&#9;C1055.724,168.59,1053.999,171.651,1051.175,173.362z" transform="matrix(1, 0, 0, 1, 2.842170943040401e-14, 7.105427357601002e-15)"/><path fill="#3BBEEF" d="M541.562,435.354c-9.91,0.833-19.826,1.968-29.625,3.681c-8.883,1.552-18.116,3.275-26.401,6.974&#10;&#9;&#9;&#9;c-2.896,1.293-7.219,3.212-8.132,6.623c-0.579,2.165-0.143,4.877-0.146,7.108c-0.003,2.437-0.006,4.873-0.009,7.31&#10;&#9;&#9;&#9;c-0.01,8.047-0.021,16.095-0.031,24.143c-0.015,11.969-0.03,23.938-0.045,35.906c0.004-3.223,3.813-5.364,6.271-6.634&#10;&#9;&#9;&#9;c3.45-1.783,7.191-3.012,10.916-4.077c8.364-2.393,16.993-3.897,25.597-5.117c4.302-0.609,8.615-1.132,12.935-1.589&#10;&#9;&#9;&#9;c2.265-0.24,4.531-0.47,6.799-0.67c0.475-0.042,1.664,0.087,1.872-0.287c0.179-0.321,0-1.262,0-1.62c0-1.087,0-2.175,0-3.263&#10;&#9;&#9;&#9;c0-17.454,0-34.908,0-52.361C541.562,446.104,541.562,440.729,541.562,435.354z" transform="matrix(1, 0, 0, 1, 5.684341886080802e-14, 1.4210854715202004e-14)"/><path opacity="0.47" fill="#5CB0E3" d="M598.328,474.144c-16.92,0.121-33.854-0.35-50.728-1.638&#10;&#9;&#9;&#9;c-16.961-1.295-34.2-3.088-50.681-7.464c-4.094-1.087-8.172-2.338-12.023-4.119c-2.827-1.307-7.63-3.642-7.63-7.331&#10;&#9;&#9;&#9;c-0.023,13.143-0.034,26.289-0.05,39.434c-0.011,8.483-0.021,16.967-0.032,25.451c-0.003,2.417-0.006,4.834-0.009,7.251&#10;&#9;&#9;&#9;c0,0.435-0.026,0.879-0.002,1.313c0.154,2.737,2.595,4.606,4.776,5.901c6.519,3.871,14.398,5.677,21.741,7.24&#10;&#9;&#9;&#9;c7.898,1.682,15.887,2.893,23.9,3.877c16.491,2.025,33.1,2.986,49.703,3.419c3.859,0.101,7.72,0.16,11.58,0.182&#10;&#9;&#9;&#9;c2.009,0.012,4.018,0.017,6.027,0.012c0.363-0.001,3.197,0.257,3.428-0.062c0.141-0.195,0-1.015,0-1.244c0-0.937,0-1.872,0-2.809&#10;&#9;&#9;&#9;c0-7.548,0-15.096,0-22.643c0-15.295,0-30.589,0-45.884C598.328,474.735,598.328,474.439,598.328,474.144z" transform="matrix(1, 0, 0, 1, 5.684341886080802e-14, 1.4210854715202004e-14)"/><path fill="#3BBEEF" d="M544.124,206.904c-16.813,1.412-33.662,3.311-50.275,6.286c-7.76,1.39-15.496,2.9-23.135,4.859&#10;&#9;&#9;&#9;c-7.396,1.896-14.799,4.082-21.729,7.328c-3.276,1.534-6.553,3.334-9.201,5.834c-1.168,1.103-2.207,2.448-2.773,3.963&#10;&#9;&#9;&#9;c-0.677,1.811-0.422,3.892-0.424,5.788c-0.01,8.098-0.021,16.196-0.03,24.294c-0.017,13.09-0.033,26.18-0.05,39.27&#10;&#9;&#9;&#9;c-0.021,16.75-0.042,33.501-0.063,50.252c-0.002,1.855-0.005,3.711-0.007,5.566c0.004-3.254,2.587-5.891,5.012-7.729&#10;&#9;&#9;&#9;c2.745-2.08,5.859-3.648,9-5.032c6.454-2.845,13.281-4.861,20.106-6.596c14.528-3.691,29.372-6.104,44.226-8.036&#10;&#9;&#9;&#9;c7.492-0.974,15.004-1.793,22.523-2.515c1.974-0.189,3.949-0.369,5.924-0.533c0.274-0.023,0.764,0.06,0.896-0.147&#10;&#9;&#9;&#9;c0.079-0.125,0-0.561,0-0.706c0-3.187,0-6.374,0-9.561c0-5.931,0-11.861,0-17.792c0-7.55,0-15.101,0-22.651&#10;&#9;&#9;&#9;c0-8.008,0-16.017,0-24.025c0-7.425,0-14.851,0-22.275c0-5.68,0-11.36,0-17.04c0-2.811,0-5.622,0-8.433&#10;&#9;&#9;&#9;C544.124,207.149,544.124,207.026,544.124,206.904z" transform="matrix(1, 0, 0, 1, 5.684341886080802e-14, 1.4210854715202004e-14)"/><path opacity="0.47" fill="#5CB0E3" d="M639.062,271.778c-28.441,0.203-56.916-0.575-85.277-2.773&#10;&#9;&#9;&#9;c-27.474-2.13-55.14-5.195-81.933-11.833c-7.152-1.772-14.305-3.886-21.061-6.854c-3.051-1.34-6.084-2.845-8.767-4.838&#10;&#9;&#9;&#9;c-2.549-1.894-5.433-4.64-5.433-8.073c-0.004,1.784-0.005,3.574-0.007,5.36c-0.006,4.824-0.012,9.647-0.018,14.471&#10;&#9;&#9;&#9;c-0.009,6.818-0.017,13.636-0.026,20.454c-0.01,7.768-0.02,15.537-0.029,23.305c-0.01,7.675-0.02,15.35-0.029,23.024&#10;&#9;&#9;&#9;c-0.008,6.538-0.017,13.075-0.024,19.613c-0.006,4.356-0.011,8.713-0.017,13.069c-0.001,1.037-0.007,2.074-0.004,3.111&#10;&#9;&#9;&#9;c0.007,2.836,1.483,5.107,3.514,7.016c4.798,4.51,11.593,7.047,17.717,9.157c6.69,2.304,13.542,4.099,20.444,5.643&#10;&#9;&#9;&#9;c13.989,3.129,28.173,5.294,42.394,7.048c14.362,1.771,28.79,3.053,43.23,3.979c14.672,0.941,29.371,1.594,44.072,1.862&#10;&#9;&#9;&#9;c7.514,0.137,15.028,0.236,22.543,0.235c1.909,0,3.819-0.005,5.728-0.015c0.501-0.002,2.729,0.255,2.983-0.038&#10;&#9;&#9;&#9;c0.062-0.071-0.011-0.409,0-0.5c0.127-0.992,0-2.086,0-3.085c0-1.822,0-3.644,0-5.466c0-5.562,0-11.123,0-16.684&#10;&#9;&#9;&#9;c0-7.229,0-14.457,0-21.685c0-7.851,0-15.702,0-23.554c0-7.431,0-14.861,0-22.292c0-5.966,0-11.932,0-17.898&#10;&#9;&#9;&#9;c0-3.467,0-6.935,0-10.401C639.062,272.685,639.062,272.232,639.062,271.778z" transform="matrix(1, 0, 0, 1, 5.684341886080802e-14, 1.4210854715202004e-14)"/><path fill="#4E9DB5" d="M912.148,415.018h-9.5l-0.002,0.003c-1.789-0.265-3.699,0.049-5.455,1.113l-146.836,88.949&#10;&#9;&#9;&#9;c-5.312,3.218-8.558,8.978-8.558,15.189v66.529v24.966v27.503h9.5l32.396-52.882l117.476-71.163&#10;&#9;&#9;&#9;c5.312-3.218,8.558-8.979,8.558-15.189v-76.84c0-1.426-0.36-2.721-0.959-3.852L912.148,415.018z" transform="matrix(1, 0, 0, 1, 5.684341886080802e-14, 1.4210854715202004e-14)"/><path fill="#A2DDF2" d="M906.691,416.134l-146.836,88.949c-5.312,3.218-8.558,8.978-8.558,15.189v66.529v24.966v27.503&#10;&#9;&#9;&#9;l36.217-49.442l0,0l123.154-74.603c5.312-3.218,8.558-8.979,8.558-15.189v-76.84C919.227,416.763,912.194,412.801,906.691,416.134&#10;&#9;&#9;&#9;z" transform="matrix(1, 0, 0, 1, 5.684341886080802e-14, 1.4210854715202004e-14)"/><path d="M 832.01001 474.368988 L 909.278015 427.562012" fill="none" stroke="#FFFFFF" stroke-miterlimit="10" transform="matrix(1, 0, 0, 1, 5.684341886080802e-14, 1.4210854715202004e-14)"/><path d="M 767.513 533.922974 L 909.278015 448.045013" fill="none" stroke="#FFFFFF" stroke-miterlimit="10" transform="matrix(1, 0, 0, 1, 5.684341886080802e-14, 1.4210854715202004e-14)"/><path d="M 767.513 551.952026 L 909.278015 466.075012" fill="none" stroke="#FFFFFF" stroke-miterlimit="10" transform="matrix(1, 0, 0, 1, 5.684341886080802e-14, 1.4210854715202004e-14)"/><path d="M 767.513 569.981018 L 909.278015 484.104004" fill="none" stroke="#FFFFFF" stroke-miterlimit="10" transform="matrix(1, 0, 0, 1, 5.684341886080802e-14, 1.4210854715202004e-14)"/><path fill="#3BBEEF" d="M937.286,454.826c15.76,1.324,31.553,3.103,47.126,5.892c7.273,1.303,14.525,2.719,21.686,4.555&#10;&#9;&#9;&#9;c6.934,1.777,13.872,3.827,20.367,6.869c3.07,1.438,6.143,3.126,8.625,5.469c1.095,1.034,2.068,2.295,2.599,3.715&#10;&#9;&#9;&#9;c0.635,1.697,0.396,3.648,0.397,5.425c0.01,7.591,0.02,15.182,0.029,22.773c0.016,12.27,0.031,24.539,0.047,36.809&#10;&#9;&#9;&#9;c0.02,15.702,0.039,31.403,0.059,47.104c0.003,1.739,0.005,3.479,0.007,5.218c-0.004-3.051-2.425-5.522-4.698-7.245&#10;&#9;&#9;&#9;c-2.572-1.949-5.492-3.42-8.436-4.718c-6.05-2.666-12.449-4.557-18.847-6.182c-13.618-3.46-27.531-5.723-41.456-7.532&#10;&#9;&#9;&#9;c-7.021-0.913-14.063-1.682-21.112-2.357c-1.85-0.178-3.701-0.346-5.553-0.5c-0.258-0.021-0.717,0.057-0.84-0.138&#10;&#9;&#9;&#9;c-0.074-0.117,0-0.526,0-0.662c0-2.987,0-5.975,0-8.962c0-5.56,0-11.118,0-16.678c0-7.077,0-14.154,0-21.231&#10;&#9;&#9;&#9;c0-7.507,0-15.014,0-22.52c0-6.96,0-13.92,0-20.88c0-5.324,0-10.648,0-15.973c0-2.635,0-5.27,0-7.905&#10;&#9;&#9;&#9;C937.286,455.057,937.286,454.941,937.286,454.826z" transform="matrix(1, 0, 0, 1, 5.684341886080802e-14, 1.4210854715202004e-14)"/><linearGradient id="SVGID_2_" gradientUnits="userSpaceOnUse" x1="848.2422" y1="557.2051" x2="1038.2275" y2="557.2051">
			<stop offset="0" style="stop-color:#FFFFFF"/>
			<stop offset="1" style="stop-color:#FFFFFF;stop-opacity:0"/>
		</linearGradient><path fill="url(#SVGID_2_)" d="M848.295,515.637c26.66,0.19,53.351-0.539,79.936-2.6c25.753-1.996,51.686-4.869,76.8-11.092&#10;&#9;&#9;&#9;c6.704-1.661,13.408-3.644,19.741-6.425c2.86-1.257,5.703-2.667,8.218-4.535c2.389-1.776,5.093-4.349,5.093-7.567&#10;&#9;&#9;&#9;c0.004,1.672,0.004,3.351,0.007,5.024c0.005,4.521,0.011,9.043,0.017,13.565c0.008,6.391,0.017,12.781,0.024,19.172&#10;&#9;&#9;&#9;c0.009,7.282,0.019,14.563,0.027,21.846c0.01,7.193,0.019,14.388,0.027,21.582c0.008,6.128,0.016,12.256,0.023,18.384&#10;&#9;&#9;&#9;c0.005,4.083,0.011,8.167,0.016,12.251c0.001,0.972,0.006,1.943,0.003,2.916c-0.007,2.658-1.39,4.788-3.293,6.577&#10;&#9;&#9;&#9;c-4.498,4.227-10.867,6.605-16.608,8.583c-6.271,2.159-12.693,3.842-19.163,5.289c-13.112,2.934-26.408,4.963-39.737,6.606&#10;&#9;&#9;&#9;c-13.462,1.66-26.986,2.861-40.522,3.73c-13.753,0.882-27.531,1.494-41.311,1.745c-7.043,0.129-14.087,0.222-21.131,0.221&#10;&#9;&#9;&#9;c-1.79,0-3.579-0.005-5.369-0.014c-0.47-0.003-2.559,0.238-2.797-0.036c-0.058-0.066,0.011-0.383,0-0.468&#10;&#9;&#9;&#9;c-0.119-0.93,0-1.955,0-2.892c0-1.708,0-3.416,0-5.124c0-5.213,0-10.426,0-15.638c0-6.775,0-13.551,0-20.326&#10;&#9;&#9;&#9;c0-7.359,0-14.719,0-22.078c0-6.966,0-13.931,0-20.896c0-5.593,0-11.186,0-16.777c0-3.25,0-6.5,0-9.75&#10;&#9;&#9;&#9;C848.295,516.487,848.295,516.062,848.295,515.637z" transform="matrix(1, 0, 0, 1, 5.684341886080802e-14, 1.4210854715202004e-14)"/><linearGradient id="SVGID_3_" gradientUnits="userSpaceOnUse" x1="709.0049" y1="805.6943" x2="709.0049" y2="511.1897">
		<stop offset="0" style="stop-color:#FFFFFF"/>
		<stop offset="1" style="stop-color:#FFFFFF;stop-opacity:0"/>
	</linearGradient><path d="M 335.1619873046875 779.4180297851562 L 335.1619873046875 444.7560119628906 L 416.40399169921875 380.9960021972656 L 1082.8480224609375 374.8599853515625 L 1082.8480224609375 623.7260131835938 L 923.5339965820312 779.4180297851562 Z" fill="url(#SVGID_3_)" transform="matrix(1, 0, 0, 1, 2.842170943040401e-14, 7.105427357601002e-15)"/><linearGradient id="SVGID_4_" gradientUnits="userSpaceOnUse" x1="370.4243" y1="393.8354" x2="370.4243" y2="642.7622">
		<stop offset="0" style="stop-color:#FFFFFF"/>
		<stop offset="1" style="stop-color:#FFFFFF;stop-opacity:0"/>
	</linearGradient><path fill="url(#SVGID_4_)" d="M370.424,642.762L370.424,642.762c-2.38,0-4.31-1.93-4.31-4.31V398.145c0-2.38,1.93-4.31,4.31-4.31&#10;&#9;&#9;l0,0c2.38,0,4.31,1.93,4.31,4.31v240.307C374.734,640.832,372.805,642.762,370.424,642.762z" transform="matrix(1, 0, 0, 1, 2.842170943040401e-14, 7.105427357601002e-15)"/><linearGradient id="SVGID_5_" gradientUnits="userSpaceOnUse" x1="556.9175" y1="562.5742" x2="556.9175" y2="673.374">
		<stop offset="0" style="stop-color:#FFFFFF"/>
		<stop offset="1" style="stop-color:#FFFFFF;stop-opacity:0"/>
	</linearGradient><path fill="url(#SVGID_5_)" d="M556.917,673.374L556.917,673.374c-2.38,0-4.31-1.93-4.31-4.31v-102.18&#10;&#9;&#9;c0-2.381,1.929-4.311,4.31-4.311l0,0c2.38,0,4.31,1.93,4.31,4.311v102.18C561.227,671.444,559.297,673.374,556.917,673.374z" transform="matrix(1, 0, 0, 1, 2.842170943040401e-14, 7.105427357601002e-15)"/><linearGradient id="SVGID_6_" gradientUnits="userSpaceOnUse" x1="529.0112" y1="500.2109" x2="529.0112" y2="581.3496">
		<stop offset="0" style="stop-color:#FFFFFF"/>
		<stop offset="1" style="stop-color:#FFFFFF;stop-opacity:0"/>
	</linearGradient><path fill="url(#SVGID_6_)" d="M529.011,581.35L529.011,581.35c-2.38,0-4.31-1.93-4.31-4.31v-72.519c0-2.381,1.93-4.311,4.31-4.311&#10;&#9;&#9;l0,0c2.38,0,4.31,1.93,4.31,4.311v72.519C533.321,579.42,531.392,581.35,529.011,581.35z" transform="matrix(1, 0, 0, 1, 2.842170943040401e-14, 7.105427357601002e-15)"/><linearGradient id="SVGID_7_" gradientUnits="userSpaceOnUse" x1="932.9434" y1="591.0889" x2="932.9434" y2="701.8877">
		<stop offset="0" style="stop-color:#FFFFFF"/>
		<stop offset="1" style="stop-color:#FFFFFF;stop-opacity:0"/>
	</linearGradient><path fill="url(#SVGID_7_)" d="M932.943,701.888L932.943,701.888c-2.38,0-4.31-1.93-4.31-4.31v-102.18c0-2.381,1.93-4.31,4.31-4.31&#10;&#9;&#9;l0,0c2.38,0,4.31,1.929,4.31,4.31v102.18C937.253,699.958,935.323,701.888,932.943,701.888z" transform="matrix(1, 0, 0, 1, 2.842170943040401e-14, 7.105427357601002e-15)"/><linearGradient id="SVGID_8_" gradientUnits="userSpaceOnUse" x1="1066.9434" y1="377.0884" x2="1066.9434" y2="487.8877">
		<stop offset="0" style="stop-color:#FFFFFF"/>
		<stop offset="1" style="stop-color:#FFFFFF;stop-opacity:0"/>
	</linearGradient><path fill="url(#SVGID_8_)" d="M1066.943,487.888L1066.943,487.888c-2.38,0-4.31-1.929-4.31-4.31v-102.18&#10;&#9;&#9;c0-2.38,1.93-4.31,4.31-4.31l0,0c2.38,0,4.31,1.93,4.31,4.31v102.18C1071.253,485.958,1069.323,487.888,1066.943,487.888z" transform="matrix(1, 0, 0, 1, 2.842170943040401e-14, 7.105427357601002e-15)"/><path d="M 436.43499 447.917999 A 4.333 4.333 0 0 1 432.10199 452.250999 A 4.333 4.333 0 0 1 427.76899 447.917999 A 4.333 4.333 0 0 1 432.10199 443.584999 A 4.333 4.333 0 0 1 436.43499 447.917999 Z" fill="#FFFFFF" transform="matrix(1, 0, 0, 1, 2.842170943040401e-14, 7.105427357601002e-15)"/><path d="M 612.114006 461.212006 A 4.333 4.333 0 0 1 607.781006 465.545006 A 4.333 4.333 0 0 1 603.448006 461.212006 A 4.333 4.333 0 0 1 607.781006 456.879005 A 4.333 4.333 0 0 1 612.114006 461.212006 Z" fill="#FFFFFF" transform="matrix(1, 0, 0, 1, 2.842170943040401e-14, 7.105427357601002e-15)"/><path d="M 464.114006 557.205017 A 4.333 4.333 0 0 1 459.781006 561.538017 A 4.333 4.333 0 0 1 455.448006 557.205017 A 4.333 4.333 0 0 1 459.781006 552.872017 A 4.333 4.333 0 0 1 464.114006 557.205017 Z" fill="#FFFFFF" transform="matrix(1, 0, 0, 1, 2.842170943040401e-14, 7.105427357601002e-15)"/><path d="M 374.757988 378.908997 A 4.333 4.333 0 0 1 370.424988 383.241997 A 4.333 4.333 0 0 1 366.091988 378.908997 A 4.333 4.333 0 0 1 370.424988 374.575996 A 4.333 4.333 0 0 1 374.757988 378.908997 Z" fill="#FFFFFF" transform="matrix(1, 0, 0, 1, 2.842170943040401e-14, 7.105427357601002e-15)"/><path d="M 1071.275993 360.342987 A 4.333 4.333 0 0 1 1066.942993 364.675987 A 4.333 4.333 0 0 1 1062.609993 360.342987 A 4.333 4.333 0 0 1 1066.942993 356.009987 A 4.333 4.333 0 0 1 1071.275993 360.342987 Z" fill="#FFFFFF" transform="matrix(1, 0, 0, 1, 2.842170943040401e-14, 7.105427357601002e-15)"/><path d="M 937.275993 576.879028 A 4.333 4.333 0 0 1 932.942993 581.212029 A 4.333 4.333 0 0 1 928.609993 576.879028 A 4.333 4.333 0 0 1 932.942993 572.546028 A 4.333 4.333 0 0 1 937.275993 576.879028 Z" fill="#FFFFFF" transform="matrix(1, 0, 0, 1, 2.842170943040401e-14, 7.105427357601002e-15)"/><path d="M 947.567986 253.307999 A 4.333 4.333 0 0 1 943.234985 257.640999 A 4.333 4.333 0 0 1 938.901985 253.307999 A 4.333 4.333 0 0 1 943.234985 248.974998 A 4.333 4.333 0 0 1 947.567986 253.307999 Z" fill="#FFFFFF" transform="matrix(1, 0, 0, 1, 2.842170943040401e-14, 7.105427357601002e-15)"/><path d="M 781.590019 374.575989 A 4.333 4.333 0 0 1 777.257019 378.908989 A 4.333 4.333 0 0 1 772.924019 374.575989 A 4.333 4.333 0 0 1 777.257019 370.242989 A 4.333 4.333 0 0 1 781.590019 374.575989 Z" fill="#FFFFFF" transform="matrix(1, 0, 0, 1, 2.842170943040401e-14, 7.105427357601002e-15)"/><path opacity="0.47" fill="#5CB0E3" d="M910.681,265.807l-67.582,44.825c-8.285,5.495-15.001,2.536-15.001-6.609v-68.002&#10;&#9;&#9;&#9;c0-9.146,6.716-21.014,15.001-26.509l67.582-44.825c8.285-5.495,15.001-2.536,15.001,6.609v68.002&#10;&#9;&#9;&#9;C925.682,248.443,918.966,260.312,910.681,265.807z" transform="matrix(1, 0, 0, 1, 5.684341886080802e-14, 1.4210854715202004e-14)"/><linearGradient id="SVGID_9_" gradientUnits="userSpaceOnUse" x1="878.5332" y1="208.6035" x2="878.5332" y2="270.0449" gradientTransform="matrix(1 -0.6009 0 1 0 525.3335)">
				<stop offset="0" style="stop-color:#FFFFFF"/>
				<stop offset="1" style="stop-color:#FFFFFF;stop-opacity:0"/>
			</linearGradient><path fill="url(#SVGID_9_)" d="M878.533,206.076c-15.346,10.178-27.785,32.161-27.785,49.1s12.439,22.42,27.785,12.242&#10;&#9;&#9;&#9;&#9;c15.345-10.178,27.785-32.161,27.785-49.101C906.318,201.378,893.878,195.897,878.533,206.076z M878.533,260.908&#10;&#9;&#9;&#9;&#9;c-12.089,8.018-21.889,3.7-21.889-9.644c0-13.344,9.8-30.661,21.889-38.679c12.088-8.018,21.888-3.7,21.888,9.644&#10;&#9;&#9;&#9;&#9;C900.421,235.573,890.621,252.89,878.533,260.908z" transform="matrix(1, 0, 0, 1, 8.526512829121202e-14, 2.1316282072803006e-14)"/><path fill="#73CDDE" d="M866.771,272.336c0.889-2.476,1.807-5.026,2.732-7.592c-7.582,1.232-12.858-3.691-12.858-13.48&#10;&#9;&#9;&#9;&#9;c0-13.344,9.8-30.661,21.889-38.679c10.492-6.959,19.256-4.621,21.388,4.842l6.003-3.981&#10;&#9;&#9;&#9;&#9;c-2.214-13.026-13.631-16.498-27.391-7.371c-15.346,10.178-27.785,32.161-27.785,49.1&#10;&#9;&#9;&#9;&#9;C850.748,267.473,857.307,273.724,866.771,272.336z" transform="matrix(1, 0, 0, 1, 8.526512829121202e-14, 2.1316282072803006e-14)"/><path fill="none" stroke="#FFFFFF" stroke-miterlimit="10" d="M620.862,352.566c0,0-64.196,1.324-94.623-8.617" transform="matrix(1, 0, 0, 1, 5.684341886080802e-14, 1.4210854715202004e-14)"/><path fill="none" stroke="#FFFFFF" stroke-miterlimit="10" d="M620.862,347.359c0,0-20.852,0.43-44.42-1.041" transform="matrix(1, 0, 0, 1, 5.684341886080802e-14, 1.4210854715202004e-14)"/><path fill="none" stroke="#FFFFFF" stroke-miterlimit="10" d="M620.862,360.023c0,0-64.196,1.324-94.623-8.617" transform="matrix(1, 0, 0, 1, 5.684341886080802e-14, 1.4210854715202004e-14)"/><path fill="none" stroke="#FFFFFF" stroke-miterlimit="10" d="M620.862,367.48c0,0-64.196,1.324-94.623-8.616" transform="matrix(1, 0, 0, 1, 5.684341886080802e-14, 1.4210854715202004e-14)"/><path fill="none" stroke="#FFFFFF" stroke-miterlimit="10" d="M620.862,374.937c0,0-64.196,1.324-94.623-8.617" transform="matrix(1, 0, 0, 1, 5.684341886080802e-14, 1.4210854715202004e-14)"/><path fill="none" stroke="#FFFFFF" stroke-miterlimit="10" d="M620.862,382.394c0,0-64.196,1.324-94.623-8.617" transform="matrix(1, 0, 0, 1, 5.684341886080802e-14, 1.4210854715202004e-14)"/><path d="M 937.252991 338.828003 L 951 310 L 966.723999 315.5 L 977.5 297.278015 L 983.5 301.088013 L 995 267.253998" fill="none" stroke="#2A3586" stroke-miterlimit="10" transform="matrix(1, 0, 0, 1, 2.842170943040401e-14, 7.105427357601002e-15)"/><path d="M 941.5 338.828003 L 965.409973 308.414001 L 977.5 278 L 995 283" fill="none" stroke="#9254A2" stroke-miterlimit="10" transform="matrix(1, 0, 0, 1, 2.842170943040401e-14, 7.105427357601002e-15)"/><path fill="none" stroke="#FFFFFF" stroke-miterlimit="10" d="M623.062,319.346c0.01,6.627-5.355,12.008-11.982,12.017&#10;&#9;&#9;l-50.338-3.71c-6.627,0.01-12.008-5.354-12.017-11.982l-0.025-16.965c-0.01-6.627,5.354-12.008,11.982-12.017l50.337,3.71&#10;&#9;&#9;c6.627-0.01,12.008,5.355,12.018,11.982L623.062,319.346z" transform="matrix(1, 0, 0, 1, 2.842170943040401e-14, 7.105427357601002e-15)"/><path fill="#5365AE" d="M504.539,321.903c0.005,3.617-2.922,6.553-6.539,6.558l-27.471-2.025c-3.617,0.005-6.553-2.922-6.558-6.54&#10;&#9;&#9;l-0.014-9.258c-0.005-3.617,2.922-6.553,6.539-6.559l27.471,2.025c3.617-0.005,6.553,2.922,6.558,6.54L504.539,321.903z" transform="matrix(1, 0, 0, 1, 2.842170943040401e-14, 7.105427357601002e-15)"/><path fill="#FFFFFF" d="M504.539,351.951c0.005,3.617-2.922,6.553-6.539,6.558l-27.471-2.025c-3.617,0.005-6.553-2.922-6.558-6.54&#10;&#9;&#9;l-0.014-9.258c-0.005-3.617,2.922-6.553,6.539-6.559l27.471,2.025c3.617-0.005,6.553,2.922,6.558,6.54L504.539,351.951z" transform="matrix(1, 0, 0, 1, 2.842170943040401e-14, 7.105427357601002e-15)"/>
</svg>