<?xml version="1.0" encoding="utf-8"?>
<svg id="master-artboard" viewBox="0 0 335.99 235.19" xmlns="http://www.w3.org/2000/svg" width="335.989990234375px" height="235.19000244140625px"><title>D_47</title><path d="M 0 -0.02 H 335.98999 V 235.190007 H 0 V -0.02 Z" class="cls-1" style="fill: rgb(151, 230, 228); fill-opacity: 0;"/><path class="cls-2" d="M101.33,68.83a15,15,0,1,0,0-30h-0.45l-2,.06,0.47-1.93a15.37,15.37,0,0,0-15-19.08,15.31,15.31,0,0,0-13.25,7.55l-0.77,1.3-1.3-.78a11.42,11.42,0,0,0-17.14,7.82l-0.31,1.79-1.7-.64A11.43,11.43,0,0,0,34.41,45.57v1.52L33,47.15a10.83,10.83,0,0,0-1,21.56l0.84,0.11h68.47Z" style="fill: rgb(255, 255, 255);"/><path class="cls-3" d="M101.33,69.36H32.86l-0.91-.12a11.37,11.37,0,0,1,1-22.61l0.93,0v-1A12,12,0,0,1,50.09,34.42l1.11,0.42,0.2-1.16a11.95,11.95,0,0,1,17.94-8.18L70.18,26l0.5-.84a16,16,0,0,1,29.67,8.15,16,16,0,0,1-.47,3.77l-0.3,1.25,1.29,0h0.47A15.55,15.55,0,1,1,101.33,69.36ZM45.86,34.7A10.94,10.94,0,0,0,34.94,45.57v1.51a0.53,0.53,0,0,1-.51.53L33,47.68a10.3,10.3,0,0,0-.91,20.5l0.84,0.11h68.4a14.49,14.49,0,1,0,0-29h-0.11l-0.33,0-2,.06a0.53,0.53,0,0,1-.53-0.66l0.47-1.93A14.84,14.84,0,0,0,84.39,18.4a14.78,14.78,0,0,0-12.79,7.29L70.82,27a0.53,0.53,0,0,1-.73.18l-1.3-.78a10.89,10.89,0,0,0-16.35,7.46l-0.31,1.79a0.53,0.53,0,0,1-.71.4l-1.7-.64A10.87,10.87,0,0,0,45.86,34.7Z" style="fill: rgb(79, 67, 65);"/><path class="cls-2" d="M308.22,74.08a21.54,21.54,0,0,0-28.62-28.87c0.05-.69.09-1.38,0.09-2.09a26.31,26.31,0,1,0-52.62,0c0,0.28,0,.55,0,0.83a18.11,18.11,0,0,0-9.41,30.12h90.53Z" style="fill: rgb(255, 255, 255);"/><path class="cls-3" d="M308.22,74.58H217.69a0.5,0.5,0,0,1-.36-0.16,18.61,18.61,0,0,1,9.26-30.86c0-.14,0-0.29,0-0.43a26.81,26.81,0,1,1,53.62,0c0,0.41,0,.84,0,1.29A22,22,0,0,1,308.67,74.3,0.5,0.5,0,0,1,308.22,74.58Zm-90.31-1h90a20.81,20.81,0,0,0,2-8.92,21,21,0,0,0-30.07-19,0.5,0.5,0,0,1-.71-0.49c0.06-.75.09-1.42,0.09-2a25.81,25.81,0,1,0-51.62,0c0,0.21,0,.41,0,0.62v0.2a0.5,0.5,0,0,1-.4.5A17.61,17.61,0,0,0,217.91,73.58Z" style="fill: rgb(79, 67, 65);"/><path d="M 285.7699890136719 86.51000213623047 L 220.6300048828125 86.51000213623047 L 220.6300048828125 215.91000366210938 L 306.8900146484375 215.91000366210938 L 306.8900146484375 108.48999786376953 L 285.7699890136719 86.51000213623047 Z" class="cls-2" style="fill: rgb(255, 255, 255);"/><path class="cls-3" d="M306.89,216.41H220.63a0.5,0.5,0,0,1-.5-0.5V86.51a0.5,0.5,0,0,1,.5-0.5h65.14a0.5,0.5,0,0,1,.36.15l21.12,22a0.5,0.5,0,0,1,.14.35V215.91A0.5,0.5,0,0,1,306.89,216.41Zm-85.77-1h85.27V108.69L285.56,87H221.13V215.41Z" style="fill: rgb(79, 67, 65);"/><path d="M 285.760009765625 108.51000213623047 L 306.9200134277344 108.51000213623047 L 285.760009765625 86.5 L 285.760009765625 108.51000213623047 Z" class="cls-4" style="fill: rgb(241, 242, 242);"/><path class="cls-3" d="M306.92,109H285.76a0.5,0.5,0,0,1-.5-0.5v-22a0.5,0.5,0,0,1,.86-0.35l21.16,22A0.5,0.5,0,0,1,306.92,109Zm-20.66-1h19.48L286.26,87.74V108Z" style="fill: rgb(79, 67, 65);"/><path class="cls-3" d="M296.5,116.5h-53a0.5,0.5,0,0,1,0-1h53A0.5,0.5,0,0,1,296.5,116.5Z" style="fill: rgb(79, 67, 65);"/><path class="cls-3" d="M296.5,121h-53a0.5,0.5,0,0,1,0-1h53A0.5,0.5,0,0,1,296.5,121Z" style="fill: rgb(79, 67, 65);"/><path class="cls-3" d="M296.5,125.5h-53a0.5,0.5,0,0,1,0-1h53A0.5,0.5,0,0,1,296.5,125.5Z" style="fill: rgb(79, 67, 65);"/><path class="cls-3" d="M296.5,130h-53a0.5,0.5,0,0,1,0-1h53A0.5,0.5,0,0,1,296.5,130Z" style="fill: rgb(79, 67, 65);"/><path class="cls-3" d="M296.5,134.5h-53a0.5,0.5,0,0,1,0-1h53A0.5,0.5,0,0,1,296.5,134.5Z" style="fill: rgb(79, 67, 65);"/><path class="cls-3" d="M296.5,139h-53a0.5,0.5,0,0,1,0-1h53A0.5,0.5,0,0,1,296.5,139Z" style="fill: rgb(79, 67, 65);"/><path class="cls-3" d="M296.5,143.5h-53a0.5,0.5,0,0,1,0-1h53A0.5,0.5,0,0,1,296.5,143.5Z" style="fill: rgb(79, 67, 65);"/><path class="cls-3" d="M296.5,148h-53a0.5,0.5,0,0,1,0-1h53A0.5,0.5,0,0,1,296.5,148Z" style="fill: rgb(79, 67, 65);"/><path class="cls-3" d="M296.5,152.5h-53a0.5,0.5,0,0,1,0-1h53A0.5,0.5,0,0,1,296.5,152.5Z" style="fill: rgb(79, 67, 65);"/><path class="cls-3" d="M296.5,157h-53a0.5,0.5,0,0,1,0-1h53A0.5,0.5,0,0,1,296.5,157Z" style="fill: rgb(79, 67, 65);"/><path class="cls-3" d="M296.5,161.5h-53a0.5,0.5,0,0,1,0-1h53A0.5,0.5,0,0,1,296.5,161.5Z" style="fill: rgb(79, 67, 65);"/><path class="cls-3" d="M296.5,166h-53a0.5,0.5,0,0,1,0-1h53A0.5,0.5,0,0,1,296.5,166Z" style="fill: rgb(79, 67, 65);"/><path class="cls-5" d="M68.95,173.86V61.17a4.35,4.35,0,0,1,4.35-4.35H257.83a4.35,4.35,0,0,1,4.36,4.35V173.86H68.95Z" style="fill: rgb(241, 242, 242); fill-rule: evenodd;"/><path class="cls-3" d="M262.18,174.36H68.95a0.5,0.5,0,0,1-.5-0.5V61.17a4.86,4.86,0,0,1,4.85-4.85H257.83a4.86,4.86,0,0,1,4.86,4.85V173.86A0.5,0.5,0,0,1,262.18,174.36Zm-192.74-1H261.68V61.17a3.86,3.86,0,0,0-3.86-3.85H73.3a3.86,3.86,0,0,0-3.85,3.85V173.36Z" style="fill: rgb(79, 67, 65);"/><path class="cls-6" d="M257.83,191.27H73.3a4.35,4.35,0,0,1-4.35-4.35V173.86H262.18v13.06A4.35,4.35,0,0,1,257.83,191.27Z" style="fill: rgb(255, 255, 255); fill-rule: evenodd;"/><path class="cls-3" d="M257.83,191.77H73.3a4.86,4.86,0,0,1-4.85-4.85V173.86a0.5,0.5,0,0,1,.5-0.5H262.18a0.5,0.5,0,0,1,.5.5v13.06A4.86,4.86,0,0,1,257.83,191.77ZM69.45,174.36v12.56a3.86,3.86,0,0,0,3.85,3.85H257.83a3.86,3.86,0,0,0,3.86-3.85V174.36H69.45Z" style="fill: rgb(79, 67, 65);"/><path class="cls-6" d="M254.64,65.32v100H76.5v-100H254.64Z" style="fill: rgb(255, 255, 255); fill-rule: evenodd; fill-opacity: 0; stroke-opacity: 1;"/><path class="cls-3" d="M254.64,165.86H76.5a0.5,0.5,0,0,1-.5-0.5v-100a0.5,0.5,0,0,1,.5-0.5H254.64a0.5,0.5,0,0,1,.5.5v100A0.5,0.5,0,0,1,254.64,165.86ZM77,164.86H254.14v-99H77v99Z" style="fill: rgb(79, 67, 65);"/><path d="M 111.190002 17.379999 H 219.93 V 138.030001 H 111.190002 V 17.379999 Z" class="cls-2" style="fill: rgb(255, 255, 255);"/><path class="cls-3" d="M219.94,138.53H111.19a0.5,0.5,0,0,1-.5-0.5V17.38a0.5,0.5,0,0,1,.5-0.5H219.94a0.5,0.5,0,0,1,.5.5V138A0.5,0.5,0,0,1,219.94,138.53Zm-108.24-1H219.44V17.88H111.69V137.53Z" style="fill: rgb(79, 67, 65);"/><path d="M 111.190002 17.4 H 219.93 V 22.99 H 111.190002 V 17.4 Z" class="cls-4" style="fill: rgb(241, 242, 242);"/><path class="cls-3" d="M219.94,23.49H111.19a0.5,0.5,0,0,1-.5-0.5V17.4a0.5,0.5,0,0,1,.5-0.5H219.94a0.5,0.5,0,0,1,.5.5V23A0.5,0.5,0,0,1,219.94,23.49Zm-108.24-1H219.44V17.9H111.69v4.59Z" style="fill: rgb(79, 67, 65);"/><path d="M 120.309998 29.950001 H 210.029999 V 53.17 H 120.309998 V 29.950001 Z" class="cls-2" style="fill: rgb(255, 255, 255);"/><path class="cls-3" d="M210,53.67H120.31a0.5,0.5,0,0,1-.5-0.5V30a0.5,0.5,0,0,1,.5-0.5H210a0.5,0.5,0,0,1,.5.5V53.17A0.5,0.5,0,0,1,210,53.67Zm-89.22-1h88.72V30.45H120.81V52.67Z" style="fill: rgb(79, 67, 65);"/><path d="M 120.410004 56.970001 H 161.450005 V 69.840001 H 120.410004 V 56.970001 Z" class="cls-7" style="fill: rgb(209, 211, 212);"/><path class="cls-3" d="M161.44,70.33h-41a0.5,0.5,0,0,1-.5-0.5V57a0.5,0.5,0,0,1,.5-0.5h41a0.5,0.5,0,0,1,.5.5V69.83A0.5,0.5,0,0,1,161.44,70.33Zm-40.54-1h40V57.47h-40V69.33Z" style="fill: rgb(79, 67, 65);"/><path d="M 168.149994 56.970001 H 209.179993 V 69.840001 H 168.149994 V 56.970001 Z" class="cls-4" style="fill: rgb(241, 242, 242);"/><path class="cls-3" d="M209.18,70.33h-41a0.5,0.5,0,0,1-.5-0.5V57a0.5,0.5,0,0,1,.5-0.5h41a0.5,0.5,0,0,1,.5.5V69.83A0.5,0.5,0,0,1,209.18,70.33Zm-40.53-1h40V57.47h-40V69.33Z" style="fill: rgb(79, 67, 65);"/><path d="M 120.389999 118.080002 H 209.43 V 125.320002 H 120.389999 V 118.080002 Z" class="cls-7" style="fill: rgb(209, 211, 212);"/><path class="cls-3" d="M209.43,125.82h-89a0.5,0.5,0,0,1-.5-0.5v-7.24a0.5,0.5,0,0,1,.5-0.5h89a0.5,0.5,0,0,1,.5.5v7.24A0.5,0.5,0,0,1,209.43,125.82Zm-88.54-1h88v-6.24h-88v6.24Z" style="fill: rgb(79, 67, 65);"/><path d="M 143.399994 191.229996 H 188.899994 V 211.679996 H 143.399994 V 191.229996 Z" class="cls-4" style="fill: rgb(241, 242, 242);"/><path class="cls-3" d="M188.9,212.18H143.4a0.5,0.5,0,0,1-.5-0.5V191.23a0.5,0.5,0,0,1,.5-0.5h45.5a0.5,0.5,0,0,1,.5.5v20.45A0.5,0.5,0,0,1,188.9,212.18Zm-45-1h44.5V191.73H143.9v19.45Z" style="fill: rgb(79, 67, 65);"/><path d="M 136.020004 211.270004 H 194.860004 V 215.970004 H 136.020004 V 211.270004 Z" class="cls-7" style="fill: rgb(209, 211, 212);"/><path class="cls-3" d="M194.86,216.46H136a0.5,0.5,0,0,1-.5-0.5v-4.7a0.5,0.5,0,0,1,.5-0.5h58.84a0.5,0.5,0,0,1,.5.5V216A0.5,0.5,0,0,1,194.86,216.46Zm-58.34-1h57.84v-3.7H136.52v3.7Z" style="fill: rgb(79, 67, 65);"/><path d="M 120.5 74.150002 H 209.110001 V 113.620003 H 120.5 V 74.150002 Z" class="cls-2" style="fill: rgb(255, 255, 255);"/><path class="cls-3" d="M209.11,114.11H120.5a0.5,0.5,0,0,1-.5-0.5V74.15a0.5,0.5,0,0,1,.5-0.5h88.61a0.5,0.5,0,0,1,.5.5v39.47A0.5,0.5,0,0,1,209.11,114.11Zm-88.11-1h87.61V74.65H121v38.47Z" style="fill: rgb(79, 67, 65);"/><g id="_Group_" data-name="&lt;Group&gt;"><path class="cls-4" d="M305.06,188.74H277.34a2,2,0,0,0-2,2V214a2,2,0,0,0,2,2h27.71a2,2,0,0,0,2-2V190.72A2,2,0,0,0,305.06,188.74Z" style="fill: rgb(241, 242, 242);"/><path class="cls-3" d="M305.06,216.47H277.34a2.5,2.5,0,0,1-2.49-2.5V190.72a2.5,2.5,0,0,1,2.49-2.49h27.71a2.5,2.5,0,0,1,2.49,2.49V214A2.5,2.5,0,0,1,305.06,216.47Zm-27.71-27.22a1.47,1.47,0,0,0-1.46,1.46V214a1.47,1.47,0,0,0,1.46,1.47h27.71a1.47,1.47,0,0,0,1.46-1.47V190.72a1.47,1.47,0,0,0-1.46-1.46H277.34Z" style="fill: rgb(79, 67, 65);"/><path class="cls-7" d="M283.34,188.74v-4a7.86,7.86,0,0,1,15.71,0v4h3.7v-4a11.56,11.56,0,0,0-23.12,0v4h3.7Z" style="fill: rgb(209, 211, 212);"/><path class="cls-3" d="M303.28,189.25h-4.73v-4.49a7.34,7.34,0,0,0-14.69,0v4.49h-4.73v-4.49a12.07,12.07,0,0,1,24.15,0v4.49Zm-3.7-1h2.67v-3.46a11,11,0,0,0-22.09,0v3.46h2.67v-3.46a8.37,8.37,0,0,1,16.74,0v3.46Z" style="fill: rgb(79, 67, 65);"/><g id="circle"><path d="M 294.089995 201.279999 A 2.97 2.97 0 0 1 291.119995 204.249999 A 2.97 2.97 0 0 1 288.149995 201.279999 A 2.97 2.97 0 0 1 291.119995 198.309999 A 2.97 2.97 0 0 1 294.089995 201.279999 Z" class="cls-2" style="fill: rgb(255, 255, 255);"/><path class="cls-3" d="M291.12,204.81a3.53,3.53,0,1,1,3.53-3.53A3.54,3.54,0,0,1,291.12,204.81Zm0-5.93a2.4,2.4,0,1,0,2.4,2.4A2.41,2.41,0,0,0,291.12,198.88Z" style="fill: rgb(79, 67, 65);"/></g></g><path d="M 61.849998474121094 78.91999816894531 L 23.639999389648438 78.91999816894531 L 23.639999389648438 107.5999984741211 L 43.68000030517578 107.5999984741211 L 52.810001373291016 116.73999786376953 L 52.810001373291016 107.5999984741211 L 61.849998474121094 107.5999984741211 L 61.849998474121094 78.91999816894531 Z" class="cls-4" style="fill: rgb(241, 242, 242);"/><path class="cls-3" d="M52.81,117.24a0.5,0.5,0,0,1-.35-0.15l-9-9H23.64a0.5,0.5,0,0,1-.5-0.5V78.92a0.5,0.5,0,0,1,.5-0.5H61.85a0.5,0.5,0,0,1,.5.5V107.6a0.5,0.5,0,0,1-.5.5H53.31v8.63A0.5,0.5,0,0,1,52.81,117.24ZM24.14,107.1H43.68a0.5,0.5,0,0,1,.35.15l8.28,8.28V107.6a0.5,0.5,0,0,1,.5-0.5h8.55V79.42H24.14V107.1Z" style="fill: rgb(79, 67, 65);"/><path d="M 32.419998 87.82 H 53.079998 V 91.07 H 32.419998 V 87.82 Z" class="cls-2" style="fill: rgb(255, 255, 255);"/><path class="cls-3" d="M53.07,91.57H32.42a0.5,0.5,0,0,1-.5-0.5V87.82a0.5,0.5,0,0,1,.5-0.5H53.07a0.5,0.5,0,0,1,.5.5v3.25A0.5,0.5,0,0,1,53.07,91.57Zm-20.16-1H52.57V88.32H32.92v2.25Z" style="fill: rgb(79, 67, 65);"/><path d="M 32.419998 95.519997 H 53.079998 V 98.779997 H 32.419998 V 95.519997 Z" class="cls-2" style="fill: rgb(255, 255, 255);"/><path class="cls-3" d="M53.07,99.28H32.42a0.5,0.5,0,0,1-.5-0.5V95.52a0.5,0.5,0,0,1,.5-0.5H53.07a0.5,0.5,0,0,1,.5.5v3.26A0.5,0.5,0,0,1,53.07,99.28Zm-20.16-1H52.57V96H32.92v2.26Z" style="fill: rgb(79, 67, 65);"/><path class="cls-7" d="M124.36,156.89H112.61V145.13h11.76v11.76Z" style="fill: rgb(209, 211, 212);"/><path class="cls-3" d="M124.36,157.39H112.61a0.5,0.5,0,0,1-.5-0.5V145.13a0.5,0.5,0,0,1,.5-0.5h11.76a0.5,0.5,0,0,1,.5.5v11.76A0.5,0.5,0,0,1,124.36,157.39Zm-11.26-1h10.76V145.63H113.11v10.76Z" style="fill: rgb(79, 67, 65);"/><path class="cls-2" d="M143.06,156.89H131.3V145.13h11.76v11.76Z" style="fill: rgb(255, 255, 255);"/><path class="cls-3" d="M143.06,157.39H131.3a0.5,0.5,0,0,1-.5-0.5V145.13a0.5,0.5,0,0,1,.5-0.5h11.76a0.5,0.5,0,0,1,.5.5v11.76A0.5,0.5,0,0,1,143.06,157.39Zm-11.26-1h10.76V145.63H131.8v10.76Z" style="fill: rgb(79, 67, 65);"/><path class="cls-2" d="M161.76,156.89H150V145.13h11.76v11.76Z" style="fill: rgb(255, 255, 255);"/><path class="cls-3" d="M161.76,157.39H150a0.5,0.5,0,0,1-.5-0.5V145.13a0.5,0.5,0,0,1,.5-0.5h11.76a0.5,0.5,0,0,1,.5.5v11.76A0.5,0.5,0,0,1,161.76,157.39Zm-11.26-1h10.76V145.63H150.5v10.76Z" style="fill: rgb(79, 67, 65);"/><path class="cls-7" d="M180.45,156.89H168.7V145.13h11.75v11.76Z" style="fill: rgb(209, 211, 212);"/><path class="cls-3" d="M180.45,157.39H168.7a0.5,0.5,0,0,1-.5-0.5V145.13a0.5,0.5,0,0,1,.5-0.5h11.75a0.5,0.5,0,0,1,.5.5v11.76A0.5,0.5,0,0,1,180.45,157.39Zm-11.25-1h10.75V145.63H169.2v10.76Z" style="fill: rgb(79, 67, 65);"/><path class="cls-2" d="M199.14,156.89H187.39V145.13h11.76v11.76Z" style="fill: rgb(255, 255, 255);"/><path class="cls-3" d="M199.14,157.39H187.39a0.5,0.5,0,0,1-.5-0.5V145.13a0.5,0.5,0,0,1,.5-0.5h11.76a0.5,0.5,0,0,1,.5.5v11.76A0.5,0.5,0,0,1,199.14,157.39Zm-11.26-1h10.76V145.63H187.89v10.76Z" style="fill: rgb(79, 67, 65);"/><path class="cls-2" d="M217.84,156.89H206.08V145.13h11.76v11.76Z" style="fill: rgb(255, 255, 255);"/><path class="cls-3" d="M217.84,157.39H206.08a0.5,0.5,0,0,1-.5-0.5V145.13a0.5,0.5,0,0,1,.5-0.5h11.76a0.5,0.5,0,0,1,.5.5v11.76A0.5,0.5,0,0,1,217.84,157.39Zm-11.26-1h10.76V145.63H206.58v10.76Z" style="fill: rgb(79, 67, 65);"/><path d="M 130.649994 78.839996 H 197.669991 V 109.059996 H 130.649994 V 78.839996 Z" class="cls-2" style="fill: rgb(255, 255, 255);"/><path class="cls-3" d="M197.67,109.56h-67a0.5,0.5,0,0,1-.5-0.5V78.84a0.5,0.5,0,0,1,.5-0.5h67a0.5,0.5,0,0,1,.5.5v30.22A0.5,0.5,0,0,1,197.67,109.56Zm-66.52-1h66V79.34h-66v29.22Z" style="fill: rgb(79, 67, 65);"/><path class="cls-2" d="M164.16,83.16h0a10.79,10.79,0,0,0,0,21.58h0A10.79,10.79,0,1,0,164.16,83.16Z" style="fill: rgb(255, 255, 255);"/><path class="cls-3" d="M164.16,105.24a11.29,11.29,0,1,1,11.29-11.29A11.3,11.3,0,0,1,164.16,105.24Zm0-21.58a10.29,10.29,0,1,0,10.29,10.29A10.3,10.3,0,0,0,164.16,83.66Z" style="fill: rgb(79, 67, 65);"/><path d="M 161.2100067138672 88.3499984741211 L 161.2100067138672 99.54000091552734 L 169.39999389648438 93.94999694824219 L 161.2100067138672 88.3499984741211 Z" class="cls-2" style="fill: rgb(255, 255, 255);"/><path class="cls-3" d="M161.21,100a0.5,0.5,0,0,1-.5-0.5V88.35a0.5,0.5,0,0,1,.78-0.41l8.19,5.59a0.5,0.5,0,0,1,0,.83L161.5,100A0.5,0.5,0,0,1,161.21,100Zm0.5-10.74v9.29l6.8-4.65Z" style="fill: rgb(79, 67, 65);"/><path class="cls-6" d="M271.12,208.39a7.49,7.49,0,0,1-7.48,7.51l-28.9.05a7.49,7.49,0,0,1-7.5-7.48l-0.13-71.86a7.5,7.5,0,0,1,7.48-7.51l28.9,0a7.49,7.49,0,0,1,7.5,7.48Z" style="fill: rgb(255, 255, 255); fill-rule: evenodd;"/><path class="cls-3" d="M234.72,216.45a8,8,0,0,1-8-8l-0.13-71.86a8,8,0,0,1,8-8l28.9,0a8,8,0,0,1,8,8l0.13,71.86a8,8,0,0,1-8,8l-28.9.05h0Zm28.78-86.9-28.92,0a7,7,0,0,0-7,7l0.13,71.86a7,7,0,0,0,7,7v0l28.9-.05a7,7,0,0,0,7-7l-0.13-71.86A7,7,0,0,0,263.5,129.55Z" style="fill: rgb(79, 67, 65);"/><path class="cls-6" d="M248.57,133.19a2.19,2.19,0,1,1-2.19,2.19A2.18,2.18,0,0,1,248.57,133.19Z" style="fill: rgb(255, 255, 255); fill-rule: evenodd;"/><path class="cls-3" d="M248.57,138.07a2.69,2.69,0,1,1,1.91-4.59,2.69,2.69,0,0,1-1.9,4.59h0Zm0-4.38a1.69,1.69,0,1,0,0,3.38v0A1.69,1.69,0,0,0,248.57,133.69Z" style="fill: rgb(79, 67, 65);"/><path class="cls-8" d="M249.17,206.26a3.24,3.24,0,1,1-3.24,3.25A3.25,3.25,0,0,1,249.17,206.26Z" style="fill-rule: evenodd; fill: rgb(209, 211, 212);"/><path class="cls-3" d="M249.17,213.24a3.74,3.74,0,1,1,2.66-1.1,3.75,3.75,0,0,1-2.66,1.1h0Zm0-6.49a2.74,2.74,0,1,0,0,5.49v0A2.74,2.74,0,0,0,249.17,206.76Z" style="fill: rgb(79, 67, 65);"/><path class="cls-5" d="M229.88,203.15l-0.11-61.93,38.57-.07,0.11,61.93Z" style="fill: rgb(241, 242, 242); fill-rule: evenodd;"/><path class="cls-3" d="M229.88,203.65a0.5,0.5,0,0,1-.5-0.5l-0.11-61.93a0.5,0.5,0,0,1,.5-0.5l38.57-.07h0a0.5,0.5,0,0,1,.5.5L269,203.08a0.5,0.5,0,0,1-.5.5l-38.57.07h0Zm0.39-61.93,0.11,60.93,37.57-.07-0.11-60.93Z" style="fill: rgb(79, 67, 65);"/><path d="M 235.160004 157.279999 H 262.570004 V 184.689999 H 235.160004 V 157.279999 Z" class="cls-2" style="fill: rgb(255, 255, 255);"/><path class="cls-3" d="M262.57,185.19H235.16a0.5,0.5,0,0,1-.5-0.5V157.28a0.5,0.5,0,0,1,.5-0.5h27.41a0.5,0.5,0,0,1,.5.5v27.41A0.5,0.5,0,0,1,262.57,185.19Zm-26.91-1h26.41V157.78H235.66v26.41Z" style="fill: rgb(79, 67, 65);"/><path class="cls-7" d="M256,166.41l-2.24-1.81a0.55,0.55,0,0,0-.77.09l-6.12,7.58-2.39-2.18a0.55,0.55,0,0,0-.78,0l-1.94,2.13a0.55,0.55,0,0,0,0,.78l5.12,4.66a0.51,0.51,0,0,0,.75-0.06l1.81-2.25h0l6.6-8.18A0.55,0.55,0,0,0,256,166.41Z" style="fill: rgb(209, 211, 212);"/><path class="cls-3" d="M247.22,178.32h0a1,1,0,0,1-.69-0.27l-5.12-4.66a1,1,0,0,1-.07-1.48l1.94-2.13a1.08,1.08,0,0,1,1.49-.07l2,1.82,5.79-7.17a1.08,1.08,0,0,1,1.48-.16l2.24,1.81a1,1,0,0,1,.15,1.48l-6.59,8.16,0,0L248,177.94A1,1,0,0,1,247.22,178.32Zm-3.13-7.87-2,2.13,5.14,4.74h0l1.81-2.25h0l6.6-8.18L253.4,165l-6.19,7.59a0.5,0.5,0,0,1-.35.18,0.46,0.46,0,0,1-.37-0.13Z" style="fill: rgb(79, 67, 65);"/><path d="M 235.240005 189.820007 H 262.490005 V 193.230007 H 235.240005 V 189.820007 Z" class="cls-2" style="fill: rgb(255, 255, 255);"/><path class="cls-3" d="M262.49,193.73H235.24a0.5,0.5,0,0,1-.5-0.5v-3.41a0.5,0.5,0,0,1,.5-0.5h27.25a0.5,0.5,0,0,1,.5.5v3.41A0.5,0.5,0,0,1,262.49,193.73Zm-26.75-1H262v-2.41H235.74v2.41Z" style="fill: rgb(79, 67, 65);"/><path d="M 88.0999984741211 118.26000213623047 L 23.020000457763672 118.26000213623047 L 23.020000457763672 125.0199966430664 L 94.86000061035156 125.0199966430664 L 88.0999984741211 118.26000213623047 Z" class="cls-2" style="fill: rgb(255, 255, 255);"/><path class="cls-3" d="M94.85,125.51H23a0.5,0.5,0,0,1-.5-0.5v-6.75a0.5,0.5,0,0,1,.5-0.5H88.1a0.5,0.5,0,0,1,.35.15l6.75,6.75A0.5,0.5,0,0,1,94.85,125.51Zm-71.33-1H93.65l-5.75-5.75H23.52v5.75Z" style="fill: rgb(79, 67, 65);"/><path d="M 103.52999877929688 133.69000244140625 L 88.0999984741211 133.69000244140625 L 88.0999984741211 118.26000213623047 L 103.52999877929688 133.69000244140625 Z" class="cls-4" style="fill: rgb(241, 242, 242);"/><path class="cls-3" d="M103.55,134.19H88.1a0.5,0.5,0,0,1-.5-0.5V118.26a0.5,0.5,0,0,1,.85-0.35l15.35,15.36A0.5,0.5,0,0,1,103.55,134.19Zm-14.95-1h13.72L88.6,119.47v13.72Z" style="fill: rgb(79, 67, 65);"/><path d="M 103.38999938964844 133.69000244140625 L 88.0999984741211 133.69000244140625 L 88.0999984741211 125.0199966430664 L 23.020000457763672 125.0199966430664 L 23.020000457763672 121.63999938964844 L 23.020000457763672 121.63999938964844 L 23.020000457763672 215.27000427246094 L 103.52999877929688 215.27000427246094 L 103.52999877929688 133.8300018310547 L 103.38999938964844 133.69000244140625 Z" class="cls-2" style="fill: rgb(255, 255, 255);"/><path class="cls-3" d="M23,215.77a0.5,0.5,0,0,1-.5-0.5V121.64a0.5,0.5,0,1,1,1,0h0v2.88H88.1a0.5,0.5,0,0,1,.5.5v8.18h14.79a0.5,0.5,0,0,1,.36.15l0.14,0.14a0.5,0.5,0,0,1,.15.35v81.43a0.5,0.5,0,0,1-.5.5H23Zm0.5-90.25v89.25H103V134.19H88.1a0.5,0.5,0,0,1-.5-0.5v-8.18H23.52Z" style="fill: rgb(79, 67, 65);"/><path d="M 30.549999237060547 159.5500030517578 L 58.439998626708984 159.50999450683594 L 58.43000030517578 131.5399932861328 L 30.530000686645508 131.5399932861328 L 30.549999237060547 159.5500030517578 Z" class="cls-2" style="fill: rgb(255, 255, 255);"/><path class="cls-3" d="M30.55,160a0.5,0.5,0,0,1-.5-0.5l0-28a0.5,0.5,0,0,1,.5-0.5H58.43a0.5,0.5,0,0,1,.5.5l0,28a0.5,0.5,0,0,1-.5.5l-27.89,0h0ZM31,132v27l26.89,0,0-27H31Z" style="fill: rgb(79, 67, 65);"/><path d="M 30.530001 131.539993 H 58.440001 V 159.549994 H 30.530001 V 131.539993 Z" class="cls-2" style="fill: rgb(255, 255, 255);"/><path class="cls-3" d="M58.44,160H30.53a0.5,0.5,0,0,1-.5-0.5v-28a0.5,0.5,0,0,1,.5-0.5H58.44a0.5,0.5,0,0,1,.5.5v28A0.5,0.5,0,0,1,58.44,160ZM31,159H57.94V132H31v27Z" style="fill: rgb(79, 67, 65);"/><path class="cls-7" d="M47.75,149.36H41.23l-1.34,4.28H36.51l5.08-15.7c0.12-.42.19-0.49,0.79-0.49h4.21c0.6,0,.67.07,0.79,0.49l5.09,15.7H49.09Zm-5.8-2.91H47l-2.08-6.52H44Z" style="fill: rgb(209, 211, 212);"/><path class="cls-3" d="M52.49,154.14h-3.4a0.5,0.5,0,0,1-.48-0.35l-1.24-3.93H41.59l-1.23,3.93a0.5,0.5,0,0,1-.48.35H36.51a0.5,0.5,0,0,1-.48-0.65l5.08-15.7a1,1,0,0,1,1.26-.83h4.21a1,1,0,0,1,1.27.85l5,15.56A0.5,0.5,0,0,1,52.49,154.14Zm-3-1h2.32l-4.88-15,0-.13H42.11l0,0.11L37.2,153.14h2.32l1.23-3.93a0.5,0.5,0,0,1,.48-0.35h6.52a0.5,0.5,0,0,1,.48.35ZM47,146.95H41.94a0.5,0.5,0,0,1-.48-0.65l2.1-6.52a0.5,0.5,0,0,1,.48-0.35h0.88a0.5,0.5,0,0,1,.48.35l2.08,6.52A0.5,0.5,0,0,1,47,146.95Zm-4.38-1h3.69l-1.76-5.52H44.41Z" style="fill: rgb(79, 67, 65);"/><path d="M 62 137.330002 H 96.330002 V 140.660002 H 62 V 137.330002 Z" class="cls-2" style="fill: rgb(255, 255, 255);"/><path class="cls-3" d="M96.33,141.17H62a0.5,0.5,0,0,1-.5-0.5v-3.33a0.5,0.5,0,0,1,.5-0.5H96.33a0.5,0.5,0,0,1,.5.5v3.33A0.5,0.5,0,0,1,96.33,141.17Zm-33.83-1H95.83v-2.33H62.5v2.33Z" style="fill: rgb(79, 67, 65);"/><path d="M 62 143.669998 H 96.330002 V 146.999998 H 62 V 143.669998 Z" class="cls-2" style="fill: rgb(255, 255, 255);"/><path class="cls-3" d="M96.33,147.5H62a0.5,0.5,0,0,1-.5-0.5v-3.33a0.5,0.5,0,0,1,.5-0.5H96.33a0.5,0.5,0,0,1,.5.5V147A0.5,0.5,0,0,1,96.33,147.5Zm-33.83-1H95.83v-2.33H62.5v2.33Z" style="fill: rgb(79, 67, 65);"/><path d="M 62 150 H 96.330002 V 153.33 H 62 V 150 Z" class="cls-2" style="fill: rgb(255, 255, 255);"/><path class="cls-3" d="M96.33,153.83H62a0.5,0.5,0,0,1-.5-0.5V150a0.5,0.5,0,0,1,.5-0.5H96.33a0.5,0.5,0,0,1,.5.5v3.33A0.5,0.5,0,0,1,96.33,153.83Zm-33.83-1H95.83V150.5H62.5v2.33Z" style="fill: rgb(79, 67, 65);"/><path d="M 62 156.330002 H 96.330002 V 159.660002 H 62 V 156.330002 Z" class="cls-2" style="fill: rgb(255, 255, 255);"/><path class="cls-3" d="M96.33,160.17H62a0.5,0.5,0,0,1-.5-0.5v-3.33a0.5,0.5,0,0,1,.5-0.5H96.33a0.5,0.5,0,0,1,.5.5v3.33A0.5,0.5,0,0,1,96.33,160.17Zm-33.83-1H95.83v-2.33H62.5v2.33Z" style="fill: rgb(79, 67, 65);"/><path d="M 30.33 162.669998 H 96.33 V 165.999998 H 30.33 V 162.669998 Z" class="cls-2" style="fill: rgb(255, 255, 255);"/><path class="cls-3" d="M96.33,166.5h-66a0.5,0.5,0,0,1-.5-0.5v-3.33a0.5,0.5,0,0,1,.5-0.5h66a0.5,0.5,0,0,1,.5.5V166A0.5,0.5,0,0,1,96.33,166.5Zm-65.5-1h65v-2.33h-65v2.33Z" style="fill: rgb(79, 67, 65);"/><path d="M 30.33 169 H 96.33 V 172.33 H 30.33 V 169 Z" class="cls-2" style="fill: rgb(255, 255, 255);"/><path class="cls-3" d="M96.33,172.83h-66a0.5,0.5,0,0,1-.5-0.5V169a0.5,0.5,0,0,1,.5-0.5h66a0.5,0.5,0,0,1,.5.5v3.33A0.5,0.5,0,0,1,96.33,172.83Zm-65.5-1h65V169.5h-65v2.33Z" style="fill: rgb(79, 67, 65);"/><path d="M 30.33 175.330002 H 96.33 V 178.660002 H 30.33 V 175.330002 Z" class="cls-2" style="fill: rgb(255, 255, 255);"/><path class="cls-3" d="M96.33,179.17h-66a0.5,0.5,0,0,1-.5-0.5v-3.33a0.5,0.5,0,0,1,.5-0.5h66a0.5,0.5,0,0,1,.5.5v3.33A0.5,0.5,0,0,1,96.33,179.17Zm-65.5-1h65v-2.33h-65v2.33Z" style="fill: rgb(79, 67, 65);"/><path d="M 30.33 181.669998 H 96.33 V 184.999998 H 30.33 V 181.669998 Z" class="cls-2" style="fill: rgb(255, 255, 255);"/><path class="cls-3" d="M96.33,185.5h-66a0.5,0.5,0,0,1-.5-0.5v-3.33a0.5,0.5,0,0,1,.5-0.5h66a0.5,0.5,0,0,1,.5.5V185A0.5,0.5,0,0,1,96.33,185.5Zm-65.5-1h65v-2.33h-65v2.33Z" style="fill: rgb(79, 67, 65);"/><path d="M 30.33 188 H 96.33 V 191.33 H 30.33 V 188 Z" class="cls-2" style="fill: rgb(255, 255, 255);"/><path class="cls-3" d="M96.33,191.83h-66a0.5,0.5,0,0,1-.5-0.5V188a0.5,0.5,0,0,1,.5-0.5h66a0.5,0.5,0,0,1,.5.5v3.33A0.5,0.5,0,0,1,96.33,191.83Zm-65.5-1h65V188.5h-65v2.33Z" style="fill: rgb(79, 67, 65);"/><path d="M 30.33 194.330002 H 96.33 V 197.660002 H 30.33 V 194.330002 Z" class="cls-2" style="fill: rgb(255, 255, 255);"/><path class="cls-3" d="M96.33,198.16h-66a0.5,0.5,0,0,1-.5-0.5v-3.33a0.5,0.5,0,0,1,.5-0.5h66a0.5,0.5,0,0,1,.5.5v3.33A0.5,0.5,0,0,1,96.33,198.16Zm-65.5-1h65v-2.33h-65v2.33Z" style="fill: rgb(79, 67, 65);"/><path d="M 30.33 200.660004 H 96.33 V 203.990004 H 30.33 V 200.660004 Z" class="cls-2" style="fill: rgb(255, 255, 255);"/><path class="cls-3" d="M96.33,204.5h-66a0.5,0.5,0,0,1-.5-0.5v-3.33a0.5,0.5,0,0,1,.5-0.5h66a0.5,0.5,0,0,1,.5.5V204A0.5,0.5,0,0,1,96.33,204.5Zm-65.5-1h65v-2.33h-65v2.33Z" style="fill: rgb(79, 67, 65);"/><path d="M 122.870003 209.210007 L 121.5 210.580002" class="cls-2" style="fill: rgb(255, 255, 255);"/><path class="cls-3" d="M121.5,211.08a0.5,0.5,0,0,1-.35-0.85l1.37-1.37a0.5,0.5,0,0,1,.71.71l-1.37,1.37A0.5,0.5,0,0,1,121.5,211.08Z" style="fill: rgb(79, 67, 65);"/><path d="M 118.580002 213.5 L 117.209999 214.869995" class="cls-2" style="fill: rgb(255, 255, 255);"/><path class="cls-3" d="M117.21,215.37a0.5,0.5,0,0,1-.35-0.85l1.37-1.37a0.5,0.5,0,1,1,.71.71l-1.37,1.37A0.5,0.5,0,0,1,117.21,215.37Z" style="fill: rgb(79, 67, 65);"/><path d="M 122.870003 214.869995 L 121.5 213.5" class="cls-2" style="fill: rgb(255, 255, 255);"/><path class="cls-3" d="M122.87,215.37a0.5,0.5,0,0,1-.35-0.15l-1.37-1.37a0.5,0.5,0,0,1,.71-0.71l1.37,1.37A0.5,0.5,0,0,1,122.87,215.37Z" style="fill: rgb(79, 67, 65);"/><path d="M 118.580002 210.580002 L 117.209999 209.210007" class="cls-2" style="fill: rgb(255, 255, 255);"/><path class="cls-3" d="M118.58,211.08a0.5,0.5,0,0,1-.35-0.15l-1.37-1.37a0.5,0.5,0,0,1,.71-0.71l1.37,1.37A0.5,0.5,0,0,1,118.58,211.08Z" style="fill: rgb(79, 67, 65);"/><path d="M 241.369995 100.709999 L 240 102.080002" class="cls-2" style="fill: rgb(255, 255, 255);"/><path class="cls-3" d="M240,102.58a0.5,0.5,0,0,1-.35-0.85l1.37-1.37a0.5,0.5,0,1,1,.71.71l-1.37,1.37A0.5,0.5,0,0,1,240,102.58Z" style="fill: rgb(79, 67, 65);"/><path d="M 237.080002 105 L 235.710007 106.370003" class="cls-2" style="fill: rgb(255, 255, 255);"/><path class="cls-3" d="M235.71,106.87a0.5,0.5,0,0,1-.35-0.85l1.37-1.37a0.5,0.5,0,0,1,.71.71l-1.37,1.37A0.5,0.5,0,0,1,235.71,106.87Z" style="fill: rgb(79, 67, 65);"/><path d="M 241.369995 106.370003 L 240 105" class="cls-2" style="fill: rgb(255, 255, 255);"/><path class="cls-3" d="M241.37,106.87a0.5,0.5,0,0,1-.35-0.15l-1.37-1.37a0.5,0.5,0,0,1,.71-0.71l1.37,1.37A0.5,0.5,0,0,1,241.37,106.87Z" style="fill: rgb(79, 67, 65);"/><path d="M 237.080002 102.080002 L 235.710007 100.709999" class="cls-2" style="fill: rgb(255, 255, 255);"/><path class="cls-3" d="M237.08,102.58a0.5,0.5,0,0,1-.35-0.15l-1.37-1.37a0.5,0.5,0,0,1,.71-0.71l1.37,1.37A0.5,0.5,0,0,1,237.08,102.58Z" style="fill: rgb(79, 67, 65);"/><path d="M 305.869995 32.709999 L 304.5 34.080002" class="cls-2" style="fill: rgb(255, 255, 255);"/><path d="M 301.579987 37 L 300.209991 38.369999" class="cls-2" style="fill: rgb(255, 255, 255);"/><path d="M 305.869995 38.369999 L 304.5 37" class="cls-2" style="fill: rgb(255, 255, 255);"/><path d="M 301.579987 34.080002 L 300.209991 32.709999" class="cls-2" style="fill: rgb(255, 255, 255);"/><path d="M 90.870003 34.209999 L 89.5 35.580002" class="cls-2" style="fill: rgb(255, 255, 255);"/><path class="cls-3" d="M89.5,36.08a0.5,0.5,0,0,1-.35-0.85l1.37-1.37a0.5,0.5,0,0,1,.71.71l-1.37,1.37A0.5,0.5,0,0,1,89.5,36.08Z" style="fill: rgb(79, 67, 65);"/><path d="M 86.580002 38.5 L 85.209999 39.869999" class="cls-2" style="fill: rgb(255, 255, 255);"/><path class="cls-3" d="M85.21,40.37a0.5,0.5,0,0,1-.35-0.85l1.37-1.37a0.5,0.5,0,0,1,.71.71l-1.37,1.37A0.5,0.5,0,0,1,85.21,40.37Z" style="fill: rgb(79, 67, 65);"/><path d="M 90.870003 39.869999 L 89.5 38.5" class="cls-2" style="fill: rgb(255, 255, 255);"/><path class="cls-3" d="M90.87,40.37a0.5,0.5,0,0,1-.35-0.15l-1.37-1.37a0.5,0.5,0,0,1,.71-0.71l1.37,1.37A0.5,0.5,0,0,1,90.87,40.37Z" style="fill: rgb(79, 67, 65);"/><path d="M 86.580002 35.580002 L 85.209999 34.209999" class="cls-2" style="fill: rgb(255, 255, 255);"/><path class="cls-3" d="M86.58,36.08a0.5,0.5,0,0,1-.35-0.15l-1.37-1.37a0.5,0.5,0,0,1,.71-0.71l1.37,1.37A0.5,0.5,0,0,1,86.58,36.08Z" style="fill: rgb(79, 67, 65);"/><path d="M 134.439995 200.729996 A 3.43 3.43 0 0 1 131.009995 204.159996 A 3.43 3.43 0 0 1 127.579994 200.729996 A 3.43 3.43 0 0 1 131.009995 197.299996 A 3.43 3.43 0 0 1 134.439995 200.729996 Z" class="cls-2" style="fill: rgb(255, 255, 255);"/><path class="cls-4" d="M195.6,37.21H136.45v6.37H195.6a3.18,3.18,0,0,0,3.19-3.18h0A3.19,3.19,0,0,0,195.6,37.21Z" style="fill: rgb(241, 242, 242);"/><path class="cls-3" d="M199.29,40.39a3.7,3.7,0,0,1-3.69,3.69H136.45a0.51,0.51,0,0,1-.51-0.51V37.21a0.51,0.51,0,0,1,.51-0.51H195.6A3.7,3.7,0,0,1,199.29,40.39ZM137,43.07H195.6a2.68,2.68,0,0,0,2.68-2.68h0a2.68,2.68,0,0,0-2.68-2.68H137v5.35Z" style="fill: rgb(79, 67, 65);"/><path d="M 136.4499969482422 43.58000183105469 L 128.69000244140625 40.38999938964844 L 136.4499969482422 37.209999084472656 L 136.4499969482422 43.58000183105469 Z" class="cls-2" style="fill: rgb(255, 255, 255);"/><path class="cls-3" d="M137,37.19a0.06,0.06,0,0,1,0,0v6.37a0.51,0.51,0,0,1-.7.47l-7.75-3.18a0.53,0.53,0,0,1,0-.94l7.64-3.14a0.5,0.5,0,0,1,.31-0.11A0.51,0.51,0,0,1,137,37.19Zm-1,5.63V38L130,40.39Z" style="fill: rgb(79, 67, 65);"/><path class="cls-3" d="M191.29,44v2.81a0.51,0.51,0,0,1-.51.51H161.65a0.51,0.51,0,1,1,0-1h28.62V44A0.51,0.51,0,1,1,191.29,44Z" style="fill: rgb(79, 67, 65);"/></svg>