<?xml version="1.0" encoding="utf-8"?>
<svg id="master-artboard" viewBox="0 0 720 503.999" version="1.1" xmlns="http://www.w3.org/2000/svg" x="0px" y="0px" width="720px" height="503.9989929199219px" enable-background="new 0 0 720 503.999">
<path d="M 0 0 H 720 V 503.998993 H 0 V 0 Z" fill="#FFFFFF" transform="matrix(0.8605604261667199, 0, 0, 0.8605604261667199, 50.19824657998086, 7.105427357601002e-15)" style="fill-opacity: 0;"/>
<g transform="matrix(1, 0, 0, 1, 2.842170943040401e-14, 7.105427357601002e-15)">
		<g opacity="0.5">
			<g>
				<path d="M 88.370003 160.473007 H 106.370003 V 258.789009 H 88.370003 V 160.473007 Z" fill="#8ED6CE"/>
			</g>
			<g>
				<path d="M 53.369999 182.123993 H 71.369999 V 258.789993 H 53.369999 V 182.123993 Z" fill="#E5C1BE"/>
			</g>
			<g>
				<path d="M 120.370003 139.182999 H 138.370003 V 258.789001 H 120.370003 V 139.182999 Z" fill="#AC9DEA"/>
			</g>
			<g>
				<path d="M 155.369995 177.507004 H 173.369995 V 258.789001 H 155.369995 V 177.507004 Z" fill="#9AEFB0"/>
			</g>
		</g>
		<g>
			<path d="M 53.369999 263.078003 H 71.369999 V 264.078003 H 53.369999 V 263.078003 Z" fill="#E5C1BE"/>
		</g>
		<g>
			<path d="M 88.370003 263.078003 H 106.370003 V 264.078003 H 88.370003 V 263.078003 Z" fill="#8ED6CE"/>
		</g>
		<g>
			<path d="M 120.370003 263.078003 H 138.370003 V 264.078003 H 120.370003 V 263.078003 Z" fill="#E8E6FF"/>
		</g>
		<g>
			<path d="M 155.369995 263.078003 H 173.369995 V 264.078003 H 155.369995 V 263.078003 Z" fill="#9AEFB0"/>
		</g>
	</g>
<g opacity="0.1" transform="matrix(1, 0, 0, 1, 2.842170943040401e-14, 7.105427357601002e-15)">
		<path fill="#636260" d="M170.605,338.944c-1.059-0.192-2.158-0.305-3.295-0.305h-4.884v-8.018c0-1.556-1.261-2.817-2.817-2.817&#10;&#9;&#9;&#9;s-2.817,1.262-2.817,2.817v8.018h-36.687v-8.018c0-1.556-1.261-2.817-2.817-2.817s-2.817,1.262-2.817,2.817v8.018h-5.041&#10;&#9;&#9;&#9;c-7.733,0-14.003,4.7-14.003,10.497v4.668v46.223c0,5.797,6.27,10.497,14.003,10.497h57.88c1.137,0,2.236-0.112,3.295-0.305&#10;&#9;&#9;&#9;c6.141-1.112,10.708-5.248,10.708-10.192v-46.223v-4.668C181.314,344.192,176.746,340.057,170.605,338.944z"/>
	</g><g transform="matrix(1, 0, 0, 1, 5.684341886080802e-14, 1.4210854715202004e-14)">
			<path fill="#4D4273" d="M174.257,348.701c0-4.944-4.568-9.08-10.708-10.192v14.86h10.708V348.701z"/>
		</g><path fill="#636260" d="M163.549,353.369v56.415c6.141-1.112,10.708-5.248,10.708-10.192v-46.223H163.549z" transform="matrix(1, 0, 0, 1, 8.526512829121202e-14, 2.1316282072803006e-14)"/><g transform="matrix(1, 0, 0, 1, 8.526512829121202e-14, 2.1316282072803006e-14)">
				<g>
					<path fill="#9085B3" d="M160.254,338.204h-57.88c-7.733,0-14.003,4.7-14.003,10.497v4.668h75.179v-14.86&#10;&#9;&#9;&#9;&#9;&#9;&#9;C162.49,338.316,161.391,338.204,160.254,338.204z"/>
				</g>
			</g><g transform="matrix(1, 0, 0, 1, 1.1368683772161603e-13, 2.842170943040401e-14)">
					<path fill="#F5F1F0" d="M88.37,353.369v46.223c0,5.797,6.27,10.497,14.003,10.497h57.88c1.137,0,2.236-0.112,3.295-0.305&#10;&#9;&#9;&#9;&#9;&#9;&#9;v-56.415H88.37z"/>
				</g><g transform="matrix(1, 0, 0, 1, 1.1368683772161603e-13, 2.842170943040401e-14)">
					<path fill="#FFFFFF" d="M109.501,393.457v-2.504l3.199-3.107c7.698-7.326,11.176-11.222,11.222-15.766&#10;&#9;&#9;&#9;&#9;&#9;&#9;c0-3.061-1.484-5.89-5.982-5.89c-2.736,0-5.008,1.392-6.399,2.551l-1.298-2.875c2.087-1.763,5.055-3.061,8.532-3.061&#10;&#9;&#9;&#9;&#9;&#9;&#9;c6.492,0,9.228,4.451,9.228,8.764c0,5.565-4.034,10.062-10.387,16.184l-2.411,2.227v0.093h13.541v3.385H109.501z"/>
				</g><path fill="#FFFFFF" d="M150.493,366.19c-0.834-0.046-1.901,0-3.061,0.186c-6.399,1.066-9.784,5.75-10.48,10.712h0.139&#10;&#9;&#9;&#9;&#9;&#9;&#9;c1.438-1.901,3.941-3.478,7.28-3.478c5.333,0,9.089,3.849,9.089,9.737c0,5.519-3.756,10.619-10.016,10.619&#10;&#9;&#9;&#9;&#9;&#9;&#9;c-6.446,0-10.666-5.008-10.666-12.845c0-5.936,2.133-10.619,5.101-13.587c2.504-2.457,5.843-3.987,9.646-4.451&#10;&#9;&#9;&#9;&#9;&#9;&#9;c1.206-0.186,2.226-0.232,2.968-0.232V366.19z M149.334,383.58c0-4.312-2.458-6.909-6.214-6.909&#10;&#9;&#9;&#9;&#9;&#9;&#9;c-2.458,0-4.73,1.53-5.843,3.709c-0.278,0.464-0.464,1.067-0.464,1.809c0.093,4.962,2.365,8.625,6.631,8.625&#10;&#9;&#9;&#9;&#9;&#9;&#9;C146.969,390.813,149.334,387.893,149.334,383.58z" transform="matrix(1, 0, 0, 1, 1.4210854715202004e-13, 3.552713678800501e-14)"/><g transform="matrix(1, 0, 0, 1, 1.1368683772161603e-13, 2.842170943040401e-14)">
					<path fill="#E5C1BE" d="M113.049,342.969c0,1.557-1.261,2.818-2.817,2.818l0,0c-1.556,0-2.817-1.262-2.817-2.818v-12.782&#10;&#9;&#9;&#9;&#9;&#9;&#9;c0-1.556,1.261-2.817,2.817-2.817l0,0c1.556,0,2.817,1.262,2.817,2.817V342.969z"/>
				</g><g transform="matrix(1, 0, 0, 1, 1.1368683772161603e-13, 2.842170943040401e-14)">
					<path fill="#E5C1BE" d="M155.37,342.969c0,1.557-1.261,2.818-2.817,2.818l0,0c-1.556,0-2.817-1.262-2.817-2.818v-12.782&#10;&#9;&#9;&#9;&#9;&#9;&#9;c0-1.556,1.261-2.817,2.817-2.817l0,0c1.556,0,2.817,1.262,2.817,2.817V342.969z"/>
				</g>
<g transform="matrix(1, 0, 0, 1, 2.842170943040401e-14, 7.105427357601002e-15)">
		<path d="M 602.6190185546875 280.56201171875 L 526.75 280.56201171875 L 526.75 413.010986328125 L 629.6099853515625 413.010986328125 L 629.6099853515625 307.5539855957031 Z" opacity="0.05" fill="#636260"/>
		<path d="M 593.7579956054688 281.10699462890625 L 517.8889770507812 281.10699462890625 L 517.8889770507812 413.5559997558594 L 620.7490234375 413.5559997558594 L 620.7490234375 308.0989990234375 Z" fill="#EDE9E8"/>
		<path d="M 593.7579956054688 308.0989990234375 L 620.7490234375 308.218994140625 L 593.8779907226562 281.10699462890625 Z" fill="#E3DFDE"/>
		<path d="M 593.7579956054688 308.0989990234375 L 620.7490234375 308.218994140625 L 620.7490234375 313.4939880371094 Z" fill="#C9C6C5"/>
		<g>
			<path d="M 534.383972 322.966003 H 601.716972 V 325.492003 H 534.383972 V 322.966003 Z" fill="#E0DDDC"/>
			<path d="M 534.383972 328.485992 H 601.716972 V 331.011992 H 534.383972 V 328.485992 Z" fill="#E0DDDC"/>
			<path d="M 534.383972 334.006012 H 601.716972 V 336.533012 H 534.383972 V 334.006012 Z" fill="#E0DDDC"/>
			<path d="M 534.383972 339.526001 H 601.716972 V 342.052001 H 534.383972 V 339.526001 Z" fill="#E0DDDC"/>
			<path d="M 534.383972 361.606995 H 601.716972 V 364.132995 H 534.383972 V 361.606995 Z" fill="#E0DDDC"/>
		</g>
	</g>
<g transform="matrix(1, 0, 0, 1, 2.842170943040401e-14, 7.105427357601002e-15)">
		
			<path d="M 551.179016 175.798996 H 616.730019 V 296.049995 H 551.179016 V 175.798996 Z" transform="matrix(0.0051 -1 1 0.0051 345.0494 818.6647)" opacity="0.05" fill="#636260"/>
		<g>
			<g>
				
					<path d="M 518.054993 196.352997 H 638.305992 V 261.903999 H 518.054993 V 196.352997 Z" transform="matrix(1 0.0051 -0.0051 1 1.1724 -2.9364)" fill="#E8E6FF"/>
			</g>
			<g>
				<path d="M 518.2239990234375 196.0469970703125 L 578.1229858398438 240.593994140625 L 638.4719848632812 196.66000366210938 Z" fill="#E8E6FF"/>
			</g>
			<g>
				<path fill="#C0BAE1" d="M518.224,196.047l59.956,49.902l60.292-49.29l0,0c0,0-60.004,39.561-60.33,40.045&#10;&#9;&#9;&#9;&#9;&#9;C577.815,237.19,518.224,196.047,518.224,196.047z"/>
			</g>
		</g>
	</g>
<g transform="matrix(1, 0, 0, 1, 2.842170943040401e-14, 7.105427357601002e-15)">
		<g opacity="0.4">
			<path fill="#E8E6FF" d="M113.37,122.108c-8.601,0-15.598-6.997-15.598-15.598s6.997-15.598,15.598-15.598&#10;&#9;&#9;&#9;&#9;s15.598,6.997,15.598,15.598S121.971,122.108,113.37,122.108z M113.37,94.913c-6.395,0-11.598,5.203-11.598,11.598&#10;&#9;&#9;&#9;&#9;s5.203,11.598,11.598,11.598s11.598-5.203,11.598-11.598S119.765,94.913,113.37,94.913z"/>
		</g>
		
		<g opacity="0.7">
			<path fill="#E8E6FF" d="M318.363,143.561c-3.781,0-6.856-3.076-6.856-6.856s3.076-6.856,6.856-6.856s6.856,3.076,6.856,6.856&#10;&#9;&#9;&#9;&#9;S322.144,143.561,318.363,143.561z M318.363,133.848c-1.575,0-2.856,1.281-2.856,2.856s1.281,2.856,2.856,2.856&#10;&#9;&#9;&#9;&#9;s2.856-1.281,2.856-2.856S319.938,133.848,318.363,133.848z"/>
		</g>
		<g opacity="0.7">
			<path fill="#E8E6FF" d="M568.051,111.367c-3.78,0-6.856-3.076-6.856-6.856s3.076-6.856,6.856-6.856s6.856,3.076,6.856,6.856&#10;&#9;&#9;&#9;&#9;S571.831,111.367,568.051,111.367z M568.051,101.654c-1.575,0-2.856,1.281-2.856,2.856s1.281,2.856,2.856,2.856&#10;&#9;&#9;&#9;&#9;s2.856-1.281,2.856-2.856S569.626,101.654,568.051,101.654z"/>
		</g>
		<g opacity="0.7">
			<path fill="#E8E6FF" d="M504.074,408.252c-3.78,0-6.856-3.076-6.856-6.856s3.076-6.856,6.856-6.856s6.856,3.076,6.856,6.856&#10;&#9;&#9;&#9;&#9;S507.854,408.252,504.074,408.252z M504.074,398.539c-1.575,0-2.856,1.281-2.856,2.856s1.281,2.856,2.856,2.856&#10;&#9;&#9;&#9;&#9;s2.856-1.281,2.856-2.856S505.649,398.539,504.074,398.539z"/>
		</g>
		<g opacity="0.7">
			<path fill="#E8E6FF" d="M211.281,102.463c-3.781,0-6.856-3.076-6.856-6.856s3.076-6.856,6.856-6.856s6.856,3.076,6.856,6.856&#10;&#9;&#9;&#9;&#9;S215.062,102.463,211.281,102.463z M211.281,92.75c-1.575,0-2.856,1.281-2.856,2.856s1.281,2.856,2.856,2.856&#10;&#9;&#9;&#9;&#9;s2.856-1.281,2.856-2.856S212.856,92.75,211.281,92.75z"/>
		</g>
	</g>
<g transform="matrix(1, 0, 0, 1, 2.842170943040401e-14, 7.105427357601002e-15)">
		<g opacity="0.4">
			<path d="M 661.539018 358.226013 A 7.308 7.308 0 0 1 654.231018 365.534013 A 7.308 7.308 0 0 1 646.923018 358.226013 A 7.308 7.308 0 0 1 654.231018 350.918013 A 7.308 7.308 0 0 1 661.539018 358.226013 Z" fill="#9AEFB0"/>
		</g>
		<g opacity="0.4">
			<path d="M 101.617003 315.973999 A 4.247 4.247 0 0 1 97.370003 320.220999 A 4.247 4.247 0 0 1 93.123003 315.973999 A 4.247 4.247 0 0 1 97.370003 311.726999 A 4.247 4.247 0 0 1 101.617003 315.973999 Z" fill="#9AEFB0"/>
		</g>
		<g opacity="0.4">
			<path d="M 534.384024 182.123993 A 4.247 4.247 0 0 1 530.137024 186.370993 A 4.247 4.247 0 0 1 525.890024 182.123993 A 4.247 4.247 0 0 1 530.137024 177.876993 A 4.247 4.247 0 0 1 534.384024 182.123993 Z" fill="#9AEFB0"/>
		</g>
		<g opacity="0.4">
			<path d="M 478.077989 54.353001 A 7.308 7.308 0 0 1 470.769989 61.661001 A 7.308 7.308 0 0 1 463.461989 54.353001 A 7.308 7.308 0 0 1 470.769989 47.045001 A 7.308 7.308 0 0 1 478.077989 54.353001 Z" fill="#9AEFB0"/>
		</g>
		<g opacity="0.4">
			<path d="M 285.425011 70.370003 A 4.126 4.126 0 0 1 281.299011 74.496003 A 4.126 4.126 0 0 1 277.173011 70.370003 A 4.126 4.126 0 0 1 281.299011 66.244003 A 4.126 4.126 0 0 1 285.425011 70.370003 Z" fill="#9AEFB0"/>
		</g>
	</g><g transform="matrix(1, 0, 0, 1, 5.684341886080802e-14, 1.4210854715202004e-14)">
			<g>
				<path fill="#F7F3F2" d="M181.788,142.848c0,1.369-1.11,2.479-2.479,2.479l0,0c-1.369,0-2.479-1.11-2.479-2.479v-16.849&#10;&#9;&#9;&#9;&#9;&#9;c0-1.369,1.11-2.479,2.479-2.479l0,0c1.369,0,2.479,1.11,2.479,2.479V142.848z"/>
			</g>
			<g>
				<path fill="#F7F3F2" d="M170.885,136.902c-1.37,0-2.479-1.11-2.479-2.479l0,0c0-1.369,1.11-2.479,2.479-2.479h16.849&#10;&#9;&#9;&#9;&#9;&#9;c1.37,0,2.479,1.11,2.479,2.479l0,0c0,1.37-1.11,2.479-2.479,2.479H170.885z"/>
			</g>
		</g><g transform="matrix(1, 0, 0, 1, 8.526512829121202e-14, 2.1316282072803006e-14)">
				<path fill="#F7F3F2" d="M571.894,175.415c0,2.123-1.72,3.843-3.843,3.843l0,0c-2.122,0-3.844-1.721-3.844-3.843v-26.121&#10;&#9;&#9;&#9;&#9;&#9;c0-2.123,1.722-3.843,3.844-3.843l0,0c2.123,0,3.843,1.721,3.843,3.843V175.415z"/>
			</g><path fill="#F7F3F2" d="M554.99,166.198c-2.124,0-3.844-1.721-3.844-3.844l0,0c0-2.122,1.72-3.842,3.844-3.842h26.12&#10;&#9;&#9;&#9;&#9;&#9;c2.122,0,3.844,1.72,3.844,3.842l0,0c0,2.123-1.722,3.844-3.844,3.844H554.99z" transform="matrix(1, 0, 0, 1, 1.1368683772161603e-13, 2.842170943040401e-14)"/><g transform="matrix(1, 0, 0, 1, 8.526512829121202e-14, 2.1316282072803006e-14)">
				<path fill="#F7F3F2" d="M443.543,147.607c0,1.369-1.109,2.479-2.479,2.479l0,0c-1.369,0-2.479-1.11-2.479-2.479v-16.849&#10;&#9;&#9;&#9;&#9;&#9;c0-1.369,1.11-2.479,2.479-2.479l0,0c1.369,0,2.479,1.11,2.479,2.479V147.607z"/>
			</g><path fill="#F7F3F2" d="M432.64,141.662c-1.37,0-2.479-1.11-2.479-2.479l0,0c0-1.369,1.109-2.479,2.479-2.479h16.849&#10;&#9;&#9;&#9;&#9;&#9;c1.369,0,2.479,1.11,2.479,2.479l0,0c0,1.37-1.11,2.479-2.479,2.479H432.64z" transform="matrix(1, 0, 0, 1, 1.1368683772161603e-13, 2.842170943040401e-14)"/><g transform="matrix(1, 0, 0, 1, 8.526512829121202e-14, 2.1316282072803006e-14)">
				<path fill="#F7F3F2" d="M158.911,306.697c0,1.957-1.584,3.543-3.54,3.543l0,0c-1.956,0-3.542-1.586-3.542-3.543v-24.068&#10;&#9;&#9;&#9;&#9;&#9;c0-1.956,1.586-3.542,3.542-3.542l0,0c1.956,0,3.54,1.586,3.54,3.542V306.697z"/>
			</g><path fill="#F7F3F2" d="M143.336,298.205c-1.957,0-3.542-1.586-3.542-3.542l0,0c0-1.956,1.585-3.54,3.542-3.54h24.069&#10;&#9;&#9;&#9;&#9;&#9;c1.956,0,3.542,1.584,3.542,3.54l0,0c0,1.956-1.586,3.542-3.542,3.542H143.336z" transform="matrix(1, 0, 0, 1, 1.1368683772161603e-13, 2.842170943040401e-14)"/><g transform="matrix(1, 0, 0, 1, 8.526512829121202e-14, 2.1316282072803006e-14)">
				<path fill="#F7F3F2" d="M640.95,321.919c0,1.369-1.109,2.479-2.479,2.479l0,0c-1.369,0-2.479-1.11-2.479-2.479V305.07&#10;&#9;&#9;&#9;&#9;&#9;c0-1.369,1.11-2.479,2.479-2.479l0,0c1.369,0,2.479,1.11,2.479,2.479V321.919z"/>
			</g><path fill="#F7F3F2" d="M630.047,315.974c-1.37,0-2.479-1.11-2.479-2.479l0,0c0-1.369,1.109-2.479,2.479-2.479h16.849&#10;&#9;&#9;&#9;&#9;&#9;c1.369,0,2.479,1.109,2.479,2.479l0,0c0,1.369-1.11,2.479-2.479,2.479H630.047z" transform="matrix(1, 0, 0, 1, 1.1368683772161603e-13, 2.842170943040401e-14)"/>
<g transform="matrix(1, 0, 0, 1, 2.842170943040401e-14, 7.105427357601002e-15)">
		<g>
			<g>
				<path fill="#E8E6FF" d="M428.454,49.869h-61.741c-11.046,0-20,8.954-20,20v30c0,11.046,8.954,20,20,20h8.836l65.516-65.516&#10;&#9;&#9;&#9;&#9;&#9;C437.624,51.553,433.237,49.869,428.454,49.869z"/>
			</g>
			<g>
				<path fill="#DFDDF5" d="M441.064,54.353l-65.516,65.516h52.905c11.046,0,20-8.954,20-20v-30&#10;&#9;&#9;&#9;&#9;&#9;C448.454,63.606,445.571,58.02,441.064,54.353z"/>
			</g>
			<g>
				<path d="M 350.04901123046875 145.36900329589844 L 354.1629943847656 141.2550048828125 L 366.04901123046875 114.36900329589844 L 347.260009765625 104.51000213623047 L 347.260009765625 156.86900329589844 L 354.1629943847656 141.2550048828125 Z" fill="#E8E6FF"/>
			</g>
		</g>
		<g>
			<path fill="#FFFFFF" d="M434.381,70.37c0,1.289-1.045,2.333-2.334,2.333h-67.664c-1.289,0-2.334-1.045-2.334-2.333l0,0&#10;&#9;&#9;&#9;&#9;c0-1.289,1.045-2.333,2.334-2.333h67.664C433.336,68.036,434.381,69.081,434.381,70.37L434.381,70.37z"/>
		</g>
		<g>
			<path fill="#FFFFFF" d="M434.381,85.111c0,1.289-1.045,2.333-2.334,2.333h-67.664c-1.289,0-2.334-1.045-2.334-2.333l0,0&#10;&#9;&#9;&#9;&#9;c0-1.289,1.045-2.333,2.334-2.333h67.664C433.336,82.777,434.381,83.822,434.381,85.111L434.381,85.111z"/>
		</g>
		<g>
			<path fill="#FFFFFF" d="M434.381,100.177c0,1.289-1.045,2.333-2.334,2.333h-67.664c-1.289,0-2.334-1.045-2.334-2.333l0,0&#10;&#9;&#9;&#9;&#9;c0-1.289,1.045-2.333,2.334-2.333h67.664C433.336,97.843,434.381,98.888,434.381,100.177L434.381,100.177z"/>
		</g>
	</g><g transform="matrix(1, 0, 0, 1, 5.684341886080802e-14, 1.4210854715202004e-14)">
			<g>
				<path fill="#F2D7D5" d="M529.162,90.318H478.95c-8.982,0-16.265,7.282-16.265,16.265v24.398c0,8.983,7.282,16.265,16.265,16.265&#10;&#9;&#9;&#9;&#9;&#9;h3.223l54.88-54.88C534.715,91.064,532.027,90.318,529.162,90.318z"/>
			</g>
			<g>
				<path fill="#E8CECC" d="M537.053,92.365l-54.88,54.88h46.989c8.982,0,16.265-7.282,16.265-16.265v-24.398&#10;&#9;&#9;&#9;&#9;&#9;C545.427,100.465,542.045,95.142,537.053,92.365z"/>
			</g>
			<g>
				<path d="M 463.1300048828125 134.7550048828125 L 463.1300048828125 177.3350067138672 L 478.4100036621094 142.77200317382812 Z" fill="#F2D7D5"/>
			</g>
		</g><path fill="#FFFFFF" d="M536.728,108.844c0,1.289-0.944,2.333-2.108,2.333h-61.128c-1.164,0-2.108-1.045-2.108-2.333l0,0&#10;&#9;&#9;&#9;&#9;c0-1.289,0.944-2.333,2.108-2.333h61.128C535.783,106.51,536.728,107.555,536.728,108.844L536.728,108.844z" transform="matrix(1, 0, 0, 1, 8.526512829121202e-14, 2.1316282072803006e-14)"/><path fill="#FFFFFF" d="M536.728,124.203c0,1.289-0.944,2.333-2.108,2.333h-61.128c-1.164,0-2.108-1.045-2.108-2.333l0,0&#10;&#9;&#9;&#9;&#9;c0-1.289,0.944-2.333,2.108-2.333h61.128C535.783,121.869,536.728,122.914,536.728,124.203L536.728,124.203z" transform="matrix(1, 0, 0, 1, 8.526512829121202e-14, 2.1316282072803006e-14)"/>
<g transform="matrix(1, 0, 0, 1, 2.842170943040401e-14, 7.105427357601002e-15)">
		<g>
			<path fill="#E5C1BE" d="M424.049,416.869c0,1.933-1.567,3.5-3.5,3.5h-336c-1.933,0-3.5-1.567-3.5-3.5l0,0&#10;&#9;&#9;&#9;&#9;c0-1.933,1.567-3.5,3.5-3.5h336C422.481,413.369,424.049,414.937,424.049,416.869L424.049,416.869z"/>
		</g>
		<g>
			<path fill="#E5C1BE" d="M666.631,416.869c0,1.933-1.773,3.5-3.96,3.5H433.009c-2.187,0-3.96-1.567-3.96-3.5l0,0&#10;&#9;&#9;&#9;&#9;c0-1.933,1.773-3.5,3.96-3.5h229.662C664.857,413.369,666.631,414.937,666.631,416.869L666.631,416.869z"/>
		</g>
	</g>
<g transform="matrix(1, 0, 0, 1, 0.6507165275293687, 3.904299165175999)">
		<g opacity="0.2">
			<path fill="#636260" d="M512.351,355.205V171.96c0-3.897-2.498-7.057-5.576-7.057H224.747&#10;&#9;&#9;&#9;&#9;c-6.159-0.017-10.298-0.032-11.658-0.044c-3.234-0.03-6.713-0.051-9.211,0.044h-0.639c-0.255,0-0.504,0.029-0.748,0.071&#10;&#9;&#9;&#9;&#9;c-0.012,0-0.027,0.001-0.039,0.002c-0.488,0.036-0.942,0.224-1.355,0.469c-0.526,0.278-1.01,0.655-1.439,1.112&#10;&#9;&#9;&#9;&#9;c-0.003,0.002-0.006,0.005-0.009,0.007c-0.766,0.661-1.224,1.52-1.511,2.559c-0.303,0.869-0.473,1.827-0.473,2.837v183.245h0.019&#10;&#9;&#9;&#9;&#9;v24.232c0,3.896,2.495,7.056,5.574,7.056h124.23c0,0-0.505,20.518-6.886,23.596h78.923c0,0-6.548-0.855-7.051-23.596h114.322&#10;&#9;&#9;&#9;&#9;c3.075,0,5.572-3.16,5.572-7.056v-24.232H512.351z"/>
		</g>
		<g>
			<path fill="#4D4273" d="M504.056,170.833c0-3.827-2.498-6.931-5.576-6.931H194.944c-3.078,0-5.574,3.104-5.574,6.931V350.8&#10;&#9;&#9;&#9;&#9;h314.686V170.833z"/>
		</g>
		<g>
			<path d="M 202.69700622558594 177.3350067138672 L 202.69700622558594 338.2040100097656 L 325.5480041503906 338.2040100097656 L 486.4159851074219 177.3350067138672 Z" fill="#F5F1F0"/>
		</g>
		<g>
			<path d="M 325.5480041503906 338.2040100097656 L 492.52899169921875 338.2040100097656 L 492.52899169921875 177.3350067138672 L 486.4159851074219 177.3350067138672 Z" fill="#EDE9E8"/>
		</g>
		<g>
			<path fill="#FFFFFF" d="M189.389,350.8v23.799c0,3.826,2.495,6.93,5.574,6.93h303.539c3.075,0,5.572-3.104,5.572-6.93V350.8&#10;&#9;&#9;&#9;&#9;H189.389z"/>
		</g>
		<g>
			<path fill="#E6E2E1" d="M384.18,381.528h-64.986c0,0-0.107,5.188-0.831,11.174h66.46&#10;&#9;&#9;&#9;&#9;C384.491,389.572,384.26,385.884,384.18,381.528z"/>
		</g>
		<g>
			<path fill="#F5F1F0" d="M384.823,392.702h-66.46c-0.859,7.116-2.59,15.363-6.055,17.387h78.923&#10;&#9;&#9;&#9;&#9;C391.23,410.089,386.592,409.352,384.823,392.702z"/>
		</g>
		<g opacity="0.5">
			<g>
				<path d="M 247.5489959716797 177.3350067138672 L 202.69700622558594 261.6189880371094 L 202.69700622558594 280.9209899902344 L 259.07501220703125 177.3350067138672 Z" fill="#FFFFFF"/>
			</g>
		</g>
		<g opacity="0.5">
			<g>
				<path d="M 264.5 177.3350067138672 L 202.69700622558594 291.5220031738281 L 202.69700622558594 318.8689880371094 L 281.29901123046875 177.3350067138672 Z" fill="#FFFFFF"/>
			</g>
		</g>
	</g>
<g transform="matrix(1, 0, 0, 1, 2.842170943040401e-14, 7.105427357601002e-15)">
		<g>
			<path fill="#EDE9E8" d="M304.832,136.423h-92.282l-0.587-0.94c-1.754-2.807-2.681-6.028-2.681-9.314&#10;&#9;&#9;&#9;&#9;c0-9.716,7.905-17.621,17.621-17.621c2.066,0,4.125,0.369,6.06,1.077c3.84-11.452,14.554-19.26,26.827-19.26&#10;&#9;&#9;&#9;&#9;c9.918,0,19.041,5.161,24.171,13.569c1.413-0.301,2.843-0.453,4.269-0.453c11.381,0,20.641,9.259,20.641,20.641&#10;&#9;&#9;&#9;&#9;c0,4.073-1.191,8.018-3.445,11.408L304.832,136.423z M214.817,132.423h87.831c1.457-2.521,2.222-5.37,2.222-8.301&#10;&#9;&#9;&#9;&#9;c0-9.176-7.465-16.641-16.641-16.641c-1.567,0-3.145,0.229-4.687,0.682l-1.557,0.457l-0.768-1.43&#10;&#9;&#9;&#9;&#9;c-4.25-7.911-12.46-12.825-21.428-12.825c-11.225,0-20.931,7.605-23.604,18.495l-0.613,2.5l-2.271-1.212&#10;&#9;&#9;&#9;&#9;c-1.989-1.062-4.142-1.6-6.399-1.6c-7.51,0-13.621,6.11-13.621,13.621C213.281,128.346,213.81,130.487,214.817,132.423z"/>
		</g>
		<g opacity="0.4">
			<path fill="#9AEFB0" d="M661.062,181.01h-58.672l-0.441-0.705c-1.133-1.814-1.732-3.896-1.732-6.02&#10;&#9;&#9;&#9;&#9;c0-6.279,5.109-11.388,11.389-11.388c1.256,0,2.507,0.21,3.691,0.616c2.526-7.221,9.337-12.126,17.127-12.126&#10;&#9;&#9;&#9;&#9;c6.305,0,12.108,3.252,15.414,8.561c0.856-0.171,1.724-0.258,2.588-0.258c7.334,0,13.301,5.966,13.301,13.3&#10;&#9;&#9;&#9;&#9;c0,2.623-0.768,5.165-2.22,7.351L661.062,181.01z M604.099,178.01h55.319c0.858-1.532,1.309-3.253,1.309-5.021&#10;&#9;&#9;&#9;&#9;c0-5.679-4.621-10.3-10.301-10.3c-0.97,0-1.945,0.142-2.899,0.422l-1.168,0.343l-0.576-1.072&#10;&#9;&#9;&#9;&#9;c-2.648-4.932-7.768-7.996-13.358-7.996c-6.998,0-13.048,4.741-14.714,11.529l-0.46,1.875l-1.703-0.909&#10;&#9;&#9;&#9;&#9;c-1.226-0.653-2.552-0.985-3.941-0.985c-4.626,0-8.389,3.763-8.389,8.388C603.217,175.578,603.52,176.851,604.099,178.01z"/>
		</g>
	</g>
</svg>